  0
SECTION
  2
HEADER
  9
$ACADVER
  1
AC1009
  9
$FILLMODE
 70
 0
  9
$SPLFRAME
 70
 1
  9
$EXTMIN
 10
0
 20
0
 30
0.0
  9
$EXTMAX
 10
1058.33
 20
1058.33
 30
0.0
  0
ENDSEC
  0
SECTION
  2
TABLES
  0
TABLE
  2
LAYER
 70
1
  0
LAYER
  2
0
 70
     0
 62
     7
  6
CONTINUOUS
  0
ENDTAB
  0
ENDSEC
  0
SECTION
  2
ENTITIES
  0
LINE
  8
0
 62
     0
 10
0.0950846
 20
91.9798
 30
0.0
 11
297.276
 21
91.9798
 31
0.0
  0
LINE
  8
0
 62
     0
 10
297.276
 20
91.9798
 30
0.0
 11
297.276
 21
0.122645
 31
0.0
  0
LINE
  8
0
 62
     0
 10
297.276
 20
0.122645
 30
0.0
 11
0.0950846
 21
0.122645
 31
0.0
  0
LINE
  8
0
 62
     0
 10
0.0950846
 20
0.122645
 30
0.0
 11
0.0950846
 21
91.9798
 31
0.0
  0
LINE
  8
0
 62
     0
 10
187.052
 20
21.3968
 30
0.0
 11
187.227
 21
20.4942
 31
0.0
  0
LINE
  8
0
 62
     0
 10
187.227
 20
20.4942
 30
0.0
 11
185.535
 21
20.1635
 31
0.0
  0
LINE
  8
0
 62
     0
 10
185.535
 20
20.1635
 30
0.0
 11
186.151
 21
16.994
 31
0.0
  0
LINE
  8
0
 62
     0
 10
186.151
 20
16.994
 30
0.0
 11
184.654
 21
16.7018
 31
0.0
  0
LINE
  8
0
 62
     0
 10
184.654
 20
16.7018
 30
0.0
 11
184.54
 21
17.2916
 31
0.0
  0
LINE
  8
0
 62
     0
 10
184.54
 20
17.2916
 30
0.0
 11
185.324
 21
17.4432
 31
0.0
  0
LINE
  8
0
 62
     0
 10
185.324
 20
17.4432
 30
0.0
 11
184.733
 21
20.4859
 31
0.0
  0
LINE
  8
0
 62
     0
 10
184.733
 20
20.4859
 30
0.0
 11
183.948
 21
20.3343
 31
0.0
  0
LINE
  8
0
 62
     0
 10
183.948
 20
20.3343
 30
0.0
 11
183.757
 21
21.3155
 31
0.0
  0
LINE
  8
0
 62
     0
 10
183.757
 20
21.3155
 30
0.0
 11
170.014
 21
18.6449
 31
0.0
  0
LINE
  8
0
 62
     0
 10
170.014
 20
18.6449
 30
0.0
 11
170.206
 21
17.6623
 31
0.0
  0
LINE
  8
0
 62
     0
 10
170.206
 20
17.6623
 30
0.0
 11
169.42
 21
17.5107
 31
0.0
  0
LINE
  8
0
 62
     0
 10
169.42
 20
17.5107
 30
0.0
 11
170.011
 21
14.468
 31
0.0
  0
LINE
  8
0
 62
     0
 10
170.011
 20
14.468
 30
0.0
 11
170.797
 21
14.6196
 31
0.0
  0
LINE
  8
0
 62
     0
 10
170.797
 20
14.6196
 30
0.0
 11
170.911
 21
14.0312
 31
0.0
  0
LINE
  8
0
 62
     0
 10
170.911
 20
14.0312
 30
0.0
 11
169.414
 21
13.739
 31
0.0
  0
LINE
  8
0
 62
     0
 10
169.414
 20
13.739
 30
0.0
 11
168.797
 21
16.9099
 31
0.0
  0
LINE
  8
0
 62
     0
 10
168.797
 20
16.9099
 30
0.0
 11
167.105
 21
16.5819
 31
0.0
  0
LINE
  8
0
 62
     0
 10
167.105
 20
16.5819
 30
0.0
 11
166.929
 21
17.4845
 31
0.0
  0
LINE
  8
0
 62
     0
 10
166.929
 20
17.4845
 30
0.0
 11
163.689
 21
16.8548
 31
0.0
  0
LINE
  8
0
 62
     0
 10
163.689
 20
16.8548
 30
0.0
 11
163.865
 21
15.9522
 31
0.0
  0
LINE
  8
0
 62
     0
 10
163.865
 20
15.9522
 30
0.0
 11
162.172
 21
15.6228
 31
0.0
  0
LINE
  8
0
 62
     0
 10
162.172
 20
15.6228
 30
0.0
 11
162.789
 21
12.452
 31
0.0
  0
LINE
  8
0
 62
     0
 10
162.789
 20
12.452
 30
0.0
 11
161.979
 21
12.2949
 31
0.0
  0
LINE
  8
0
 62
     0
 10
161.979
 20
12.2949
 30
0.0
 11
162.512
 21
9.54567
 31
0.0
  0
LINE
  8
0
 62
     0
 10
162.512
 20
9.54567
 30
0.0
 11
163.322
 21
9.70414
 31
0.0
  0
LINE
  8
0
 62
     0
 10
163.322
 20
9.70414
 30
0.0
 11
164.519
 21
3.54845
 31
0.0
  0
LINE
  8
0
 62
     0
 10
164.519
 20
3.54845
 30
0.0
 11
166.212
 21
3.8778
 31
0.0
  0
LINE
  8
0
 62
     0
 10
166.212
 20
3.8778
 30
0.0
 11
166.4
 21
2.91593
 31
0.0
  0
LINE
  8
0
 62
     0
 10
166.4
 20
2.91593
 30
0.0
 11
169.638
 21
3.5457
 31
0.0
  0
LINE
  8
0
 62
     0
 10
169.638
 20
3.5457
 30
0.0
 11
169.452
 21
4.50755
 31
0.0
  0
LINE
  8
0
 62
     0
 10
169.452
 20
4.50755
 30
0.0
 11
171.144
 21
4.8369
 31
0.0
  0
LINE
  8
0
 62
     0
 10
171.144
 20
4.8369
 30
0.0
 11
170.291
 21
9.22457
 31
0.0
  0
LINE
  8
0
 62
     0
 10
170.291
 20
9.22457
 30
0.0
 11
171.789
 21
9.51537
 31
0.0
  0
LINE
  8
0
 62
     0
 10
171.789
 20
9.51537
 30
0.0
 11
171.903
 21
8.92694
 31
0.0
  0
LINE
  8
0
 62
     0
 10
171.903
 20
8.92694
 30
0.0
 11
171.118
 21
8.77397
 31
0.0
  0
LINE
  8
0
 62
     0
 10
171.118
 20
8.77397
 30
0.0
 11
171.709
 21
5.72989
 31
0.0
  0
LINE
  8
0
 62
     0
 10
171.709
 20
5.72989
 30
0.0
 11
172.495
 21
5.88285
 31
0.0
  0
LINE
  8
0
 62
     0
 10
172.495
 20
5.88285
 30
0.0
 11
172.686
 21
4.90167
 31
0.0
  0
LINE
  8
0
 62
     0
 10
172.686
 20
4.90167
 30
0.0
 11
186.428
 21
7.57372
 31
0.0
  0
LINE
  8
0
 62
     0
 10
186.428
 20
7.57372
 30
0.0
 11
186.238
 21
8.55486
 31
0.0
  0
LINE
  8
0
 62
     0
 10
186.238
 20
8.55486
 30
0.0
 11
187.022
 21
8.70783
 31
0.0
  0
LINE
  8
0
 62
     0
 10
187.022
 20
8.70783
 30
0.0
 11
186.432
 21
11.7505
 31
0.0
  0
LINE
  8
0
 62
     0
 10
186.432
 20
11.7505
 30
0.0
 11
185.646
 21
11.5976
 31
0.0
  0
LINE
  8
0
 62
     0
 10
185.646
 20
11.5976
 30
0.0
 11
185.532
 21
12.186
 31
0.0
  0
LINE
  8
0
 62
     0
 10
185.532
 20
12.186
 30
0.0
 11
187.029
 21
12.4781
 31
0.0
  0
LINE
  8
0
 62
     0
 10
187.029
 20
12.4781
 30
0.0
 11
187.882
 21
8.08909
 31
0.0
  0
LINE
  8
0
 62
     0
 10
187.882
 20
8.08909
 30
0.0
 11
189.574
 21
8.41844
 31
0.0
  0
LINE
  8
0
 62
     0
 10
189.574
 20
8.41844
 30
0.0
 11
189.761
 21
7.45656
 31
0.0
  0
LINE
  8
0
 62
     0
 10
189.761
 20
7.45656
 30
0.0
 11
193.001
 21
8.08634
 31
0.0
  0
LINE
  8
0
 62
     0
 10
193.001
 20
8.08634
 30
0.0
 11
192.815
 21
9.04819
 31
0.0
  0
LINE
  8
0
 62
     0
 10
192.815
 20
9.04819
 30
0.0
 11
194.507
 21
9.37754
 31
0.0
  0
LINE
  8
0
 62
     0
 10
194.507
 20
9.37754
 30
0.0
 11
193.311
 21
15.5319
 31
0.0
  0
LINE
  8
0
 62
     0
 10
193.311
 20
15.5319
 30
0.0
 11
194.12
 21
15.6904
 31
0.0
  0
LINE
  8
0
 62
     0
 10
194.12
 20
15.6904
 30
0.0
 11
193.587
 21
18.4381
 31
0.0
  0
LINE
  8
0
 62
     0
 10
193.587
 20
18.4381
 30
0.0
 11
192.776
 21
18.2811
 31
0.0
  0
LINE
  8
0
 62
     0
 10
192.776
 20
18.2811
 30
0.0
 11
192.161
 21
21.4519
 31
0.0
  0
LINE
  8
0
 62
     0
 10
192.161
 20
21.4519
 30
0.0
 11
190.467
 21
21.1226
 31
0.0
  0
LINE
  8
0
 62
     0
 10
190.467
 20
21.1226
 30
0.0
 11
190.292
 21
22.0252
 31
0.0
  0
LINE
  8
0
 62
     0
 10
190.292
 20
22.0252
 30
0.0
 11
187.052
 21
21.3968
 31
0.0
  0
LINE
  8
0
 62
     0
 10
105.233
 20
22.3394
 30
0.0
 11
103.539
 21
22.6701
 31
0.0
  0
LINE
  8
0
 62
     0
 10
103.539
 20
22.6701
 30
0.0
 11
102.343
 21
16.5144
 31
0.0
  0
LINE
  8
0
 62
     0
 10
102.343
 20
16.5144
 30
0.0
 11
101.533
 21
16.6715
 31
0.0
  0
LINE
  8
0
 62
     0
 10
101.533
 20
16.6715
 30
0.0
 11
100.999
 21
13.9237
 31
0.0
  0
LINE
  8
0
 62
     0
 10
100.999
 20
13.9237
 30
0.0
 11
101.808
 21
13.7652
 31
0.0
  0
LINE
  8
0
 62
     0
 10
101.808
 20
13.7652
 30
0.0
 11
101.192
 21
10.5958
 31
0.0
  0
LINE
  8
0
 62
     0
 10
101.192
 20
10.5958
 30
0.0
 11
102.886
 21
10.265
 31
0.0
  0
LINE
  8
0
 62
     0
 10
102.886
 20
10.265
 30
0.0
 11
102.709
 21
9.3624
 31
0.0
  0
LINE
  8
0
 62
     0
 10
102.709
 20
9.3624
 30
0.0
 11
105.949
 21
8.734
 31
0.0
  0
LINE
  8
0
 62
     0
 10
105.949
 20
8.734
 30
0.0
 11
106.124
 21
9.63662
 31
0.0
  0
LINE
  8
0
 62
     0
 10
106.124
 20
9.63662
 30
0.0
 11
107.819
 21
9.30727
 31
0.0
  0
LINE
  8
0
 62
     0
 10
107.819
 20
9.30727
 30
0.0
 11
108.435
 21
12.4781
 31
0.0
  0
LINE
  8
0
 62
     0
 10
108.435
 20
12.4781
 30
0.0
 11
109.932
 21
12.186
 31
0.0
  0
LINE
  8
0
 62
     0
 10
109.932
 20
12.186
 30
0.0
 11
109.816
 21
11.5976
 31
0.0
  0
LINE
  8
0
 62
     0
 10
109.816
 20
11.5976
 30
0.0
 11
109.032
 21
11.7505
 31
0.0
  0
LINE
  8
0
 62
     0
 10
109.032
 20
11.7505
 30
0.0
 11
108.441
 21
8.70783
 31
0.0
  0
LINE
  8
0
 62
     0
 10
108.441
 20
8.70783
 30
0.0
 11
109.226
 21
8.55486
 31
0.0
  0
LINE
  8
0
 62
     0
 10
109.226
 20
8.55486
 30
0.0
 11
109.034
 21
7.57372
 31
0.0
  0
LINE
  8
0
 62
     0
 10
109.034
 20
7.57372
 30
0.0
 11
122.778
 21
4.90167
 31
0.0
  0
LINE
  8
0
 62
     0
 10
122.778
 20
4.90167
 30
0.0
 11
122.968
 21
5.88285
 31
0.0
  0
LINE
  8
0
 62
     0
 10
122.968
 20
5.88285
 30
0.0
 11
123.752
 21
5.72989
 31
0.0
  0
LINE
  8
0
 62
     0
 10
123.752
 20
5.72989
 30
0.0
 11
124.345
 21
8.77397
 31
0.0
  0
LINE
  8
0
 62
     0
 10
124.345
 20
8.77397
 30
0.0
 11
123.559
 21
8.92694
 31
0.0
  0
LINE
  8
0
 62
     0
 10
123.559
 20
8.92694
 30
0.0
 11
123.675
 21
9.51537
 31
0.0
  0
LINE
  8
0
 62
     0
 10
123.675
 20
9.51537
 30
0.0
 11
125.171
 21
9.22457
 31
0.0
  0
LINE
  8
0
 62
     0
 10
125.171
 20
9.22457
 30
0.0
 11
124.554
 21
6.05374
 31
0.0
  0
LINE
  8
0
 62
     0
 10
124.554
 20
6.05374
 30
0.0
 11
126.249
 21
5.72438
 31
0.0
  0
LINE
  8
0
 62
     0
 10
126.249
 20
5.72438
 30
0.0
 11
126.073
 21
4.82177
 31
0.0
  0
LINE
  8
0
 62
     0
 10
126.073
 20
4.82177
 30
0.0
 11
129.311
 21
4.19199
 31
0.0
  0
LINE
  8
0
 62
     0
 10
129.311
 20
4.19199
 30
0.0
 11
129.487
 21
5.0946
 31
0.0
  0
LINE
  8
0
 62
     0
 10
129.487
 20
5.0946
 30
0.0
 11
131.181
 21
4.76525
 31
0.0
  0
LINE
  8
0
 62
     0
 10
131.181
 20
4.76525
 30
0.0
 11
131.797
 21
7.93612
 31
0.0
  0
LINE
  8
0
 62
     0
 10
131.797
 20
7.93612
 30
0.0
 11
132.606
 21
7.77903
 31
0.0
  0
LINE
  8
0
 62
     0
 10
132.606
 20
7.77903
 30
0.0
 11
133.142
 21
10.5268
 31
0.0
  0
LINE
  8
0
 62
     0
 10
133.142
 20
10.5268
 30
0.0
 11
132.332
 21
10.6853
 31
0.0
  0
LINE
  8
0
 62
     0
 10
132.332
 20
10.6853
 30
0.0
 11
133.528
 21
16.8396
 31
0.0
  0
LINE
  8
0
 62
     0
 10
133.528
 20
16.8396
 30
0.0
 11
131.834
 21
17.169
 31
0.0
  0
LINE
  8
0
 62
     0
 10
131.834
 20
17.169
 30
0.0
 11
132.021
 21
18.1308
 31
0.0
  0
LINE
  8
0
 62
     0
 10
132.021
 20
18.1308
 30
0.0
 11
128.782
 21
18.7606
 31
0.0
  0
LINE
  8
0
 62
     0
 10
128.782
 20
18.7606
 30
0.0
 11
128.596
 21
17.7987
 31
0.0
  0
LINE
  8
0
 62
     0
 10
128.596
 20
17.7987
 30
0.0
 11
126.902
 21
18.1281
 31
0.0
  0
LINE
  8
0
 62
     0
 10
126.902
 20
18.1281
 30
0.0
 11
126.049
 21
13.739
 31
0.0
  0
LINE
  8
0
 62
     0
 10
126.049
 20
13.739
 30
0.0
 11
124.551
 21
14.0312
 31
0.0
  0
LINE
  8
0
 62
     0
 10
124.551
 20
14.0312
 30
0.0
 11
124.667
 21
14.6196
 31
0.0
  0
LINE
  8
0
 62
     0
 10
124.667
 20
14.6196
 30
0.0
 11
125.451
 21
14.468
 31
0.0
  0
LINE
  8
0
 62
     0
 10
125.451
 20
14.468
 30
0.0
 11
126.044
 21
17.5107
 31
0.0
  0
LINE
  8
0
 62
     0
 10
126.044
 20
17.5107
 30
0.0
 11
125.258
 21
17.6623
 31
0.0
  0
LINE
  8
0
 62
     0
 10
125.258
 20
17.6623
 30
0.0
 11
125.448
 21
18.6449
 31
0.0
  0
LINE
  8
0
 62
     0
 10
125.448
 20
18.6449
 30
0.0
 11
111.705
 21
21.3155
 31
0.0
  0
LINE
  8
0
 62
     0
 10
111.705
 20
21.3155
 30
0.0
 11
111.515
 21
20.3343
 31
0.0
  0
LINE
  8
0
 62
     0
 10
111.515
 20
20.3343
 30
0.0
 11
110.73
 21
20.4859
 31
0.0
  0
LINE
  8
0
 62
     0
 10
110.73
 20
20.4859
 30
0.0
 11
110.138
 21
17.4432
 31
0.0
  0
LINE
  8
0
 62
     0
 10
110.138
 20
17.4432
 30
0.0
 11
110.924
 21
17.2916
 31
0.0
  0
LINE
  8
0
 62
     0
 10
110.924
 20
17.2916
 30
0.0
 11
110.808
 21
16.7018
 31
0.0
  0
LINE
  8
0
 62
     0
 10
110.808
 20
16.7018
 30
0.0
 11
109.313
 21
16.994
 31
0.0
  0
LINE
  8
0
 62
     0
 10
109.313
 20
16.994
 30
0.0
 11
110.166
 21
21.3817
 31
0.0
  0
LINE
  8
0
 62
     0
 10
110.166
 20
21.3817
 30
0.0
 11
108.471
 21
21.711
 31
0.0
  0
LINE
  8
0
 62
     0
 10
108.471
 20
21.711
 30
0.0
 11
108.658
 21
22.6729
 31
0.0
  0
LINE
  8
0
 62
     0
 10
108.658
 20
22.6729
 30
0.0
 11
105.42
 21
23.3013
 31
0.0
  0
LINE
  8
0
 62
     0
 10
105.42
 20
23.3013
 30
0.0
 11
105.233
 21
22.3394
 31
0.0
  0
LINE
  8
0
 62
     0
 10
81.128
 20
26.2406
 30
0.0
 11
80.3423
 21
26.3936
 31
0.0
  0
LINE
  8
0
 62
     0
 10
80.3423
 20
26.3936
 30
0.0
 11
79.75
 21
23.3509
 31
0.0
  0
LINE
  8
0
 62
     0
 10
79.75
 20
23.3509
 30
0.0
 11
80.5367
 21
23.1979
 31
0.0
  0
LINE
  8
0
 62
     0
 10
80.5367
 20
23.1979
 30
0.0
 11
79.43
 21
17.5038
 31
0.0
  0
LINE
  8
0
 62
     0
 10
79.43
 20
17.5038
 30
0.0
 11
78.6447
 21
17.6582
 31
0.0
  0
LINE
  8
0
 62
     0
 10
78.6447
 20
17.6582
 30
0.0
 11
78.0521
 21
14.6141
 31
0.0
  0
LINE
  8
0
 62
     0
 10
78.0521
 20
14.6141
 30
0.0
 11
78.8377
 21
14.4611
 31
0.0
  0
LINE
  8
0
 62
     0
 10
78.8377
 20
14.4611
 30
0.0
 11
78.6476
 21
13.48
 31
0.0
  0
LINE
  8
0
 62
     0
 10
78.6476
 20
13.48
 30
0.0
 11
92.3893
 21
10.8079
 31
0.0
  0
LINE
  8
0
 62
     0
 10
92.3893
 20
10.8079
 30
0.0
 11
92.5809
 21
11.7905
 31
0.0
  0
LINE
  8
0
 62
     0
 10
92.5809
 20
11.7905
 30
0.0
 11
93.3648
 21
11.6375
 31
0.0
  0
LINE
  8
0
 62
     0
 10
93.3648
 20
11.6375
 30
0.0
 11
93.9574
 21
14.6802
 31
0.0
  0
LINE
  8
0
 62
     0
 10
93.9574
 20
14.6802
 30
0.0
 11
93.1718
 21
14.8332
 31
0.0
  0
LINE
  8
0
 62
     0
 10
93.1718
 20
14.8332
 30
0.0
 11
94.2785
 21
20.5259
 31
0.0
  0
LINE
  8
0
 62
     0
 10
94.2785
 20
20.5259
 30
0.0
 11
95.0641
 21
20.3729
 31
0.0
  0
LINE
  8
0
 62
     0
 10
95.0641
 20
20.3729
 30
0.0
 11
95.655
 21
23.417
 31
0.0
  0
LINE
  8
0
 62
     0
 10
95.655
 20
23.417
 30
0.0
 11
94.8711
 21
23.57
 31
0.0
  0
LINE
  8
0
 62
     0
 10
94.8711
 20
23.57
 30
0.0
 11
95.0613
 21
24.5511
 31
0.0
  0
LINE
  8
0
 62
     0
 10
95.0613
 20
24.5511
 30
0.0
 11
81.3181
 21
27.2232
 31
0.0
  0
LINE
  8
0
 62
     0
 10
81.3181
 20
27.2232
 30
0.0
 11
81.128
 21
26.2406
 31
0.0
  0
LINE
  8
0
 62
     0
 10
200.401
 20
24.5511
 30
0.0
 11
200.593
 21
23.57
 31
0.0
  0
LINE
  8
0
 62
     0
 10
200.593
 20
23.57
 30
0.0
 11
199.807
 21
23.417
 31
0.0
  0
LINE
  8
0
 62
     0
 10
199.807
 20
23.417
 30
0.0
 11
200.399
 21
20.3729
 31
0.0
  0
LINE
  8
0
 62
     0
 10
200.399
 20
20.3729
 30
0.0
 11
201.184
 21
20.5259
 31
0.0
  0
LINE
  8
0
 62
     0
 10
201.184
 20
20.5259
 30
0.0
 11
202.291
 21
14.8332
 31
0.0
  0
LINE
  8
0
 62
     0
 10
202.291
 20
14.8332
 30
0.0
 11
201.505
 21
14.6802
 31
0.0
  0
LINE
  8
0
 62
     0
 10
201.505
 20
14.6802
 30
0.0
 11
202.098
 21
11.6375
 31
0.0
  0
LINE
  8
0
 62
     0
 10
202.098
 20
11.6375
 30
0.0
 11
202.883
 21
11.7905
 31
0.0
  0
LINE
  8
0
 62
     0
 10
202.883
 20
11.7905
 30
0.0
 11
203.073
 21
10.8079
 31
0.0
  0
LINE
  8
0
 62
     0
 10
203.073
 20
10.8079
 30
0.0
 11
216.815
 21
13.48
 31
0.0
  0
LINE
  8
0
 62
     0
 10
216.815
 20
13.48
 30
0.0
 11
216.625
 21
14.4611
 31
0.0
  0
LINE
  8
0
 62
     0
 10
216.625
 20
14.4611
 30
0.0
 11
217.41
 21
14.6141
 31
0.0
  0
LINE
  8
0
 62
     0
 10
217.41
 20
14.6141
 30
0.0
 11
216.819
 21
17.6582
 31
0.0
  0
LINE
  8
0
 62
     0
 10
216.819
 20
17.6582
 30
0.0
 11
216.034
 21
17.5038
 31
0.0
  0
LINE
  8
0
 62
     0
 10
216.034
 20
17.5038
 30
0.0
 11
214.927
 21
23.1979
 31
0.0
  0
LINE
  8
0
 62
     0
 10
214.927
 20
23.1979
 30
0.0
 11
215.713
 21
23.3509
 31
0.0
  0
LINE
  8
0
 62
     0
 10
215.713
 20
23.3509
 30
0.0
 11
215.12
 21
26.3936
 31
0.0
  0
LINE
  8
0
 62
     0
 10
215.12
 20
26.3936
 30
0.0
 11
214.336
 21
26.2406
 31
0.0
  0
LINE
  8
0
 62
     0
 10
214.336
 20
26.2406
 30
0.0
 11
214.144
 21
27.2232
 31
0.0
  0
LINE
  8
0
 62
     0
 10
214.144
 20
27.2232
 30
0.0
 11
200.401
 21
24.5511
 31
0.0
  0
LINE
  8
0
 62
     0
 10
14.5259
 20
31.5433
 30
0.0
 11
14.5259
 21
30.5428
 31
0.0
  0
LINE
  8
0
 62
     0
 10
14.5259
 20
30.5428
 30
0.0
 11
13.7253
 21
30.5428
 31
0.0
  0
LINE
  8
0
 62
     0
 10
13.7253
 20
30.5428
 30
0.0
 11
13.7253
 21
27.445
 31
0.0
  0
LINE
  8
0
 62
     0
 10
13.7253
 20
27.445
 30
0.0
 11
14.5259
 21
27.445
 31
0.0
  0
LINE
  8
0
 62
     0
 10
14.5259
 20
27.445
 30
0.0
 11
14.5259
 21
21.6435
 31
0.0
  0
LINE
  8
0
 62
     0
 10
14.5259
 20
21.6435
 30
0.0
 11
13.7253
 21
21.6435
 31
0.0
  0
LINE
  8
0
 62
     0
 10
13.7253
 20
21.6435
 30
0.0
 11
13.7253
 21
18.5429
 31
0.0
  0
LINE
  8
0
 62
     0
 10
13.7253
 20
18.5429
 30
0.0
 11
14.5259
 21
18.5429
 31
0.0
  0
LINE
  8
0
 62
     0
 10
14.5259
 20
18.5429
 30
0.0
 11
14.5259
 21
17.5438
 31
0.0
  0
LINE
  8
0
 62
     0
 10
14.5259
 20
17.5438
 30
0.0
 11
28.5254
 21
17.5438
 31
0.0
  0
LINE
  8
0
 62
     0
 10
28.5254
 20
17.5438
 30
0.0
 11
28.5254
 21
18.5429
 31
0.0
  0
LINE
  8
0
 62
     0
 10
28.5254
 20
18.5429
 30
0.0
 11
29.326
 21
18.5429
 31
0.0
  0
LINE
  8
0
 62
     0
 10
29.326
 20
18.5429
 30
0.0
 11
29.326
 21
21.6435
 31
0.0
  0
LINE
  8
0
 62
     0
 10
29.326
 20
21.6435
 30
0.0
 11
28.5254
 21
21.6435
 31
0.0
  0
LINE
  8
0
 62
     0
 10
28.5254
 20
21.6435
 30
0.0
 11
28.5254
 21
27.445
 31
0.0
  0
LINE
  8
0
 62
     0
 10
28.5254
 20
27.445
 30
0.0
 11
29.326
 21
27.445
 31
0.0
  0
LINE
  8
0
 62
     0
 10
29.326
 20
27.445
 30
0.0
 11
29.326
 21
30.5428
 31
0.0
  0
LINE
  8
0
 62
     0
 10
29.326
 20
30.5428
 30
0.0
 11
28.5254
 21
30.5428
 31
0.0
  0
LINE
  8
0
 62
     0
 10
28.5254
 20
30.5428
 30
0.0
 11
28.5254
 21
31.5433
 31
0.0
  0
LINE
  8
0
 62
     0
 10
28.5254
 20
31.5433
 30
0.0
 11
14.5259
 21
31.5433
 31
0.0
  0
LINE
  8
0
 62
     0
 10
38.3371
 20
31.5433
 30
0.0
 11
38.3371
 21
30.5428
 31
0.0
  0
LINE
  8
0
 62
     0
 10
38.3371
 20
30.5428
 30
0.0
 11
37.5377
 21
30.5428
 31
0.0
  0
LINE
  8
0
 62
     0
 10
37.5377
 20
30.5428
 30
0.0
 11
37.5377
 21
27.445
 31
0.0
  0
LINE
  8
0
 62
     0
 10
37.5377
 20
27.445
 30
0.0
 11
38.3371
 21
27.445
 31
0.0
  0
LINE
  8
0
 62
     0
 10
38.3371
 20
27.445
 30
0.0
 11
38.3371
 21
21.6435
 31
0.0
  0
LINE
  8
0
 62
     0
 10
38.3371
 20
21.6435
 30
0.0
 11
37.5377
 21
21.6435
 31
0.0
  0
LINE
  8
0
 62
     0
 10
37.5377
 20
21.6435
 30
0.0
 11
37.5377
 21
18.5429
 31
0.0
  0
LINE
  8
0
 62
     0
 10
37.5377
 20
18.5429
 30
0.0
 11
38.3371
 21
18.5429
 31
0.0
  0
LINE
  8
0
 62
     0
 10
38.3371
 20
18.5429
 30
0.0
 11
38.3371
 21
17.5438
 31
0.0
  0
LINE
  8
0
 62
     0
 10
38.3371
 20
17.5438
 30
0.0
 11
52.3378
 21
17.5438
 31
0.0
  0
LINE
  8
0
 62
     0
 10
52.3378
 20
17.5438
 30
0.0
 11
52.3378
 21
18.5429
 31
0.0
  0
LINE
  8
0
 62
     0
 10
52.3378
 20
18.5429
 30
0.0
 11
53.1372
 21
18.5429
 31
0.0
  0
LINE
  8
0
 62
     0
 10
53.1372
 20
18.5429
 30
0.0
 11
53.1372
 21
21.6435
 31
0.0
  0
LINE
  8
0
 62
     0
 10
53.1372
 20
21.6435
 30
0.0
 11
52.3378
 21
21.6435
 31
0.0
  0
LINE
  8
0
 62
     0
 10
52.3378
 20
21.6435
 30
0.0
 11
52.3378
 21
27.445
 31
0.0
  0
LINE
  8
0
 62
     0
 10
52.3378
 20
27.445
 30
0.0
 11
53.1372
 21
27.445
 31
0.0
  0
LINE
  8
0
 62
     0
 10
53.1372
 20
27.445
 30
0.0
 11
53.1372
 21
30.5428
 31
0.0
  0
LINE
  8
0
 62
     0
 10
53.1372
 20
30.5428
 30
0.0
 11
52.3378
 21
30.5428
 31
0.0
  0
LINE
  8
0
 62
     0
 10
52.3378
 20
30.5428
 30
0.0
 11
52.3378
 21
31.5433
 31
0.0
  0
LINE
  8
0
 62
     0
 10
52.3378
 20
31.5433
 30
0.0
 11
38.3371
 21
31.5433
 31
0.0
  0
LINE
  8
0
 62
     0
 10
243.126
 20
31.5433
 30
0.0
 11
243.126
 21
30.5428
 31
0.0
  0
LINE
  8
0
 62
     0
 10
243.126
 20
30.5428
 30
0.0
 11
242.325
 21
30.5428
 31
0.0
  0
LINE
  8
0
 62
     0
 10
242.325
 20
30.5428
 30
0.0
 11
242.325
 21
27.445
 31
0.0
  0
LINE
  8
0
 62
     0
 10
242.325
 20
27.445
 30
0.0
 11
243.126
 21
27.445
 31
0.0
  0
LINE
  8
0
 62
     0
 10
243.126
 20
27.445
 30
0.0
 11
243.126
 21
21.6435
 31
0.0
  0
LINE
  8
0
 62
     0
 10
243.126
 20
21.6435
 30
0.0
 11
242.325
 21
21.6435
 31
0.0
  0
LINE
  8
0
 62
     0
 10
242.325
 20
21.6435
 30
0.0
 11
242.325
 21
18.5429
 31
0.0
  0
LINE
  8
0
 62
     0
 10
242.325
 20
18.5429
 30
0.0
 11
243.126
 21
18.5429
 31
0.0
  0
LINE
  8
0
 62
     0
 10
243.126
 20
18.5429
 30
0.0
 11
243.126
 21
17.5438
 31
0.0
  0
LINE
  8
0
 62
     0
 10
243.126
 20
17.5438
 30
0.0
 11
257.125
 21
17.5438
 31
0.0
  0
LINE
  8
0
 62
     0
 10
257.125
 20
17.5438
 30
0.0
 11
257.125
 21
18.5429
 31
0.0
  0
LINE
  8
0
 62
     0
 10
257.125
 20
18.5429
 30
0.0
 11
257.926
 21
18.5429
 31
0.0
  0
LINE
  8
0
 62
     0
 10
257.926
 20
18.5429
 30
0.0
 11
257.926
 21
21.6435
 31
0.0
  0
LINE
  8
0
 62
     0
 10
257.926
 20
21.6435
 30
0.0
 11
257.125
 21
21.6435
 31
0.0
  0
LINE
  8
0
 62
     0
 10
257.125
 20
21.6435
 30
0.0
 11
257.125
 21
27.445
 31
0.0
  0
LINE
  8
0
 62
     0
 10
257.125
 20
27.445
 30
0.0
 11
257.926
 21
27.445
 31
0.0
  0
LINE
  8
0
 62
     0
 10
257.926
 20
27.445
 30
0.0
 11
257.926
 21
30.5428
 31
0.0
  0
LINE
  8
0
 62
     0
 10
257.926
 20
30.5428
 30
0.0
 11
257.125
 21
30.5428
 31
0.0
  0
LINE
  8
0
 62
     0
 10
257.125
 20
30.5428
 30
0.0
 11
257.125
 21
31.5433
 31
0.0
  0
LINE
  8
0
 62
     0
 10
257.125
 20
31.5433
 30
0.0
 11
243.126
 21
31.5433
 31
0.0
  0
LINE
  8
0
 62
     0
 10
266.937
 20
31.5433
 30
0.0
 11
266.937
 21
30.5428
 31
0.0
  0
LINE
  8
0
 62
     0
 10
266.937
 20
30.5428
 30
0.0
 11
266.138
 21
30.5428
 31
0.0
  0
LINE
  8
0
 62
     0
 10
266.138
 20
30.5428
 30
0.0
 11
266.138
 21
27.445
 31
0.0
  0
LINE
  8
0
 62
     0
 10
266.138
 20
27.445
 30
0.0
 11
266.937
 21
27.445
 31
0.0
  0
LINE
  8
0
 62
     0
 10
266.937
 20
27.445
 30
0.0
 11
266.937
 21
21.6435
 31
0.0
  0
LINE
  8
0
 62
     0
 10
266.937
 20
21.6435
 30
0.0
 11
266.138
 21
21.6435
 31
0.0
  0
LINE
  8
0
 62
     0
 10
266.138
 20
21.6435
 30
0.0
 11
266.138
 21
18.5429
 31
0.0
  0
LINE
  8
0
 62
     0
 10
266.138
 20
18.5429
 30
0.0
 11
266.937
 21
18.5429
 31
0.0
  0
LINE
  8
0
 62
     0
 10
266.937
 20
18.5429
 30
0.0
 11
266.937
 21
17.5438
 31
0.0
  0
LINE
  8
0
 62
     0
 10
266.937
 20
17.5438
 30
0.0
 11
280.938
 21
17.5438
 31
0.0
  0
LINE
  8
0
 62
     0
 10
280.938
 20
17.5438
 30
0.0
 11
280.938
 21
18.5429
 31
0.0
  0
LINE
  8
0
 62
     0
 10
280.938
 20
18.5429
 30
0.0
 11
281.737
 21
18.5429
 31
0.0
  0
LINE
  8
0
 62
     0
 10
281.737
 20
18.5429
 30
0.0
 11
281.737
 21
21.6435
 31
0.0
  0
LINE
  8
0
 62
     0
 10
281.737
 20
21.6435
 30
0.0
 11
280.938
 21
21.6435
 31
0.0
  0
LINE
  8
0
 62
     0
 10
280.938
 20
21.6435
 30
0.0
 11
280.938
 21
27.445
 31
0.0
  0
LINE
  8
0
 62
     0
 10
280.938
 20
27.445
 30
0.0
 11
281.737
 21
27.445
 31
0.0
  0
LINE
  8
0
 62
     0
 10
281.737
 20
27.445
 30
0.0
 11
281.737
 21
30.5428
 31
0.0
  0
LINE
  8
0
 62
     0
 10
281.737
 20
30.5428
 30
0.0
 11
280.938
 21
30.5428
 31
0.0
  0
LINE
  8
0
 62
     0
 10
280.938
 20
30.5428
 30
0.0
 11
280.938
 21
31.5433
 31
0.0
  0
LINE
  8
0
 62
     0
 10
280.938
 20
31.5433
 30
0.0
 11
266.937
 21
31.5433
 31
0.0
  0
LINE
  8
0
 62
     0
 10
124.499
 20
37.2166
 30
0.0
 11
123.715
 21
37.3698
 31
0.0
  0
LINE
  8
0
 62
     0
 10
123.715
 20
37.3698
 30
0.0
 11
123.124
 21
34.3269
 31
0.0
  0
LINE
  8
0
 62
     0
 10
123.124
 20
34.3269
 30
0.0
 11
123.909
 21
34.174
 31
0.0
  0
LINE
  8
0
 62
     0
 10
123.909
 20
34.174
 30
0.0
 11
122.801
 21
28.4799
 31
0.0
  0
LINE
  8
0
 62
     0
 10
122.801
 20
28.4799
 30
0.0
 11
122.017
 21
28.6329
 31
0.0
  0
LINE
  8
0
 62
     0
 10
122.017
 20
28.6329
 30
0.0
 11
121.424
 21
25.5902
 31
0.0
  0
LINE
  8
0
 62
     0
 10
121.424
 20
25.5902
 30
0.0
 11
122.21
 21
25.4372
 31
0.0
  0
LINE
  8
0
 62
     0
 10
122.21
 20
25.4372
 30
0.0
 11
122.02
 21
24.456
 31
0.0
  0
LINE
  8
0
 62
     0
 10
122.02
 20
24.456
 30
0.0
 11
135.763
 21
21.784
 31
0.0
  0
LINE
  8
0
 62
     0
 10
135.763
 20
21.784
 30
0.0
 11
135.953
 21
22.7652
 31
0.0
  0
LINE
  8
0
 62
     0
 10
135.953
 20
22.7652
 30
0.0
 11
136.738
 21
22.6136
 31
0.0
  0
LINE
  8
0
 62
     0
 10
136.738
 20
22.6136
 30
0.0
 11
137.33
 21
25.6563
 31
0.0
  0
LINE
  8
0
 62
     0
 10
137.33
 20
25.6563
 30
0.0
 11
136.544
 21
25.8079
 31
0.0
  0
LINE
  8
0
 62
     0
 10
136.544
 20
25.8079
 30
0.0
 11
137.651
 21
31.5033
 31
0.0
  0
LINE
  8
0
 62
     0
 10
137.651
 20
31.5033
 30
0.0
 11
138.436
 21
31.349
 31
0.0
  0
LINE
  8
0
 62
     0
 10
138.436
 20
31.349
 30
0.0
 11
139.029
 21
34.3931
 31
0.0
  0
LINE
  8
0
 62
     0
 10
139.029
 20
34.3931
 30
0.0
 11
138.242
 21
34.546
 31
0.0
  0
LINE
  8
0
 62
     0
 10
138.242
 20
34.546
 30
0.0
 11
138.434
 21
35.5272
 31
0.0
  0
LINE
  8
0
 62
     0
 10
138.434
 20
35.5272
 30
0.0
 11
124.69
 21
38.1977
 31
0.0
  0
LINE
  8
0
 62
     0
 10
124.69
 20
38.1977
 30
0.0
 11
124.499
 21
37.2166
 31
0.0
  0
LINE
  8
0
 62
     0
 10
157.029
 20
35.5272
 30
0.0
 11
157.22
 21
34.546
 31
0.0
  0
LINE
  8
0
 62
     0
 10
157.22
 20
34.546
 30
0.0
 11
156.435
 21
34.3931
 31
0.0
  0
LINE
  8
0
 62
     0
 10
156.435
 20
34.3931
 30
0.0
 11
157.026
 21
31.349
 31
0.0
  0
LINE
  8
0
 62
     0
 10
157.026
 20
31.349
 30
0.0
 11
157.812
 21
31.5033
 31
0.0
  0
LINE
  8
0
 62
     0
 10
157.812
 20
31.5033
 30
0.0
 11
158.918
 21
25.8079
 31
0.0
  0
LINE
  8
0
 62
     0
 10
158.918
 20
25.8079
 30
0.0
 11
158.134
 21
25.6563
 31
0.0
  0
LINE
  8
0
 62
     0
 10
158.134
 20
25.6563
 30
0.0
 11
158.724
 21
22.6136
 31
0.0
  0
LINE
  8
0
 62
     0
 10
158.724
 20
22.6136
 30
0.0
 11
159.509
 21
22.7652
 31
0.0
  0
LINE
  8
0
 62
     0
 10
159.509
 20
22.7652
 30
0.0
 11
159.701
 21
21.784
 31
0.0
  0
LINE
  8
0
 62
     0
 10
159.701
 20
21.784
 30
0.0
 11
173.444
 21
24.456
 31
0.0
  0
LINE
  8
0
 62
     0
 10
173.444
 20
24.456
 30
0.0
 11
173.252
 21
25.4372
 31
0.0
  0
LINE
  8
0
 62
     0
 10
173.252
 20
25.4372
 30
0.0
 11
174.038
 21
25.5902
 31
0.0
  0
LINE
  8
0
 62
     0
 10
174.038
 20
25.5902
 30
0.0
 11
173.447
 21
28.6329
 31
0.0
  0
LINE
  8
0
 62
     0
 10
173.447
 20
28.6329
 30
0.0
 11
172.661
 21
28.4799
 31
0.0
  0
LINE
  8
0
 62
     0
 10
172.661
 20
28.4799
 30
0.0
 11
171.555
 21
34.174
 31
0.0
  0
LINE
  8
0
 62
     0
 10
171.555
 20
34.174
 30
0.0
 11
172.339
 21
34.3269
 31
0.0
  0
LINE
  8
0
 62
     0
 10
172.339
 20
34.3269
 30
0.0
 11
171.749
 21
37.3698
 31
0.0
  0
LINE
  8
0
 62
     0
 10
171.749
 20
37.3698
 30
0.0
 11
170.964
 21
37.2166
 31
0.0
  0
LINE
  8
0
 62
     0
 10
170.964
 20
37.2166
 30
0.0
 11
170.772
 21
38.1977
 31
0.0
  0
LINE
  8
0
 62
     0
 10
170.772
 20
38.1977
 30
0.0
 11
157.029
 21
35.5272
 31
0.0
  0
LINE
  8
0
 62
     0
 10
105.8
 20
40.852
 30
0.0
 11
105.015
 21
41.0048
 31
0.0
  0
LINE
  8
0
 62
     0
 10
105.015
 20
41.0048
 30
0.0
 11
104.424
 21
37.9621
 31
0.0
  0
LINE
  8
0
 62
     0
 10
104.424
 20
37.9621
 30
0.0
 11
105.209
 21
37.8079
 31
0.0
  0
LINE
  8
0
 62
     0
 10
105.209
 20
37.8079
 30
0.0
 11
104.101
 21
32.1166
 31
0.0
  0
LINE
  8
0
 62
     0
 10
104.101
 20
32.1166
 30
0.0
 11
103.317
 21
32.2682
 31
0.0
  0
LINE
  8
0
 62
     0
 10
103.317
 20
32.2682
 30
0.0
 11
102.725
 21
29.224
 31
0.0
  0
LINE
  8
0
 62
     0
 10
102.725
 20
29.224
 30
0.0
 11
103.51
 21
29.0725
 31
0.0
  0
LINE
  8
0
 62
     0
 10
103.51
 20
29.0725
 30
0.0
 11
103.32
 21
28.0899
 31
0.0
  0
LINE
  8
0
 62
     0
 10
103.32
 20
28.0899
 30
0.0
 11
117.063
 21
25.4193
 31
0.0
  0
LINE
  8
0
 62
     0
 10
117.063
 20
25.4193
 30
0.0
 11
117.253
 21
26.4004
 31
0.0
  0
LINE
  8
0
 62
     0
 10
117.253
 20
26.4004
 30
0.0
 11
118.039
 21
26.2489
 31
0.0
  0
LINE
  8
0
 62
     0
 10
118.039
 20
26.2489
 30
0.0
 11
118.63
 21
29.2916
 31
0.0
  0
LINE
  8
0
 62
     0
 10
118.63
 20
29.2916
 30
0.0
 11
117.844
 21
29.4432
 31
0.0
  0
LINE
  8
0
 62
     0
 10
117.844
 20
29.4432
 30
0.0
 11
118.951
 21
35.1372
 31
0.0
  0
LINE
  8
0
 62
     0
 10
118.951
 20
35.1372
 30
0.0
 11
119.736
 21
34.9843
 31
0.0
  0
LINE
  8
0
 62
     0
 10
119.736
 20
34.9843
 30
0.0
 11
120.329
 21
38.027
 31
0.0
  0
LINE
  8
0
 62
     0
 10
120.329
 20
38.027
 30
0.0
 11
119.542
 21
38.1801
 31
0.0
  0
LINE
  8
0
 62
     0
 10
119.542
 20
38.1801
 30
0.0
 11
119.733
 21
39.1612
 31
0.0
  0
LINE
  8
0
 62
     0
 10
119.733
 20
39.1612
 30
0.0
 11
105.99
 21
41.8331
 31
0.0
  0
LINE
  8
0
 62
     0
 10
105.99
 20
41.8331
 30
0.0
 11
105.8
 21
40.852
 31
0.0
  0
LINE
  8
0
 62
     0
 10
175.729
 20
39.1612
 30
0.0
 11
175.92
 21
38.1801
 31
0.0
  0
LINE
  8
0
 62
     0
 10
175.92
 20
38.1801
 30
0.0
 11
175.135
 21
38.027
 31
0.0
  0
LINE
  8
0
 62
     0
 10
175.135
 20
38.027
 30
0.0
 11
175.726
 21
34.9843
 31
0.0
  0
LINE
  8
0
 62
     0
 10
175.726
 20
34.9843
 30
0.0
 11
176.512
 21
35.1372
 31
0.0
  0
LINE
  8
0
 62
     0
 10
176.512
 20
35.1372
 30
0.0
 11
177.618
 21
29.4432
 31
0.0
  0
LINE
  8
0
 62
     0
 10
177.618
 20
29.4432
 30
0.0
 11
176.834
 21
29.2916
 31
0.0
  0
LINE
  8
0
 62
     0
 10
176.834
 20
29.2916
 30
0.0
 11
177.425
 21
26.2489
 31
0.0
  0
LINE
  8
0
 62
     0
 10
177.425
 20
26.2489
 30
0.0
 11
178.209
 21
26.4004
 31
0.0
  0
LINE
  8
0
 62
     0
 10
178.209
 20
26.4004
 30
0.0
 11
178.401
 21
25.4193
 31
0.0
  0
LINE
  8
0
 62
     0
 10
178.401
 20
25.4193
 30
0.0
 11
192.144
 21
28.0899
 31
0.0
  0
LINE
  8
0
 62
     0
 10
192.144
 20
28.0899
 30
0.0
 11
191.952
 21
29.0725
 31
0.0
  0
LINE
  8
0
 62
     0
 10
191.952
 20
29.0725
 30
0.0
 11
192.738
 21
29.224
 31
0.0
  0
LINE
  8
0
 62
     0
 10
192.738
 20
29.224
 30
0.0
 11
192.147
 21
32.2682
 31
0.0
  0
LINE
  8
0
 62
     0
 10
192.147
 20
32.2682
 30
0.0
 11
191.361
 21
32.1166
 31
0.0
  0
LINE
  8
0
 62
     0
 10
191.361
 20
32.1166
 30
0.0
 11
190.255
 21
37.8079
 31
0.0
  0
LINE
  8
0
 62
     0
 10
190.255
 20
37.8079
 30
0.0
 11
191.039
 21
37.9621
 31
0.0
  0
LINE
  8
0
 62
     0
 10
191.039
 20
37.9621
 30
0.0
 11
190.449
 21
41.0048
 31
0.0
  0
LINE
  8
0
 62
     0
 10
190.449
 20
41.0048
 30
0.0
 11
189.662
 21
40.852
 31
0.0
  0
LINE
  8
0
 62
     0
 10
189.662
 20
40.852
 30
0.0
 11
189.472
 21
41.8331
 31
0.0
  0
LINE
  8
0
 62
     0
 10
189.472
 20
41.8331
 30
0.0
 11
175.729
 21
39.1612
 31
0.0
  0
LINE
  8
0
 62
     0
 10
87.1001
 20
44.486
 30
0.0
 11
86.3148
 21
44.6401
 31
0.0
  0
LINE
  8
0
 62
     0
 10
86.3148
 20
44.6401
 30
0.0
 11
85.7236
 21
41.596
 31
0.0
  0
LINE
  8
0
 62
     0
 10
85.7236
 20
41.596
 30
0.0
 11
86.5092
 21
41.4433
 31
0.0
  0
LINE
  8
0
 62
     0
 10
86.5092
 20
41.4433
 30
0.0
 11
85.4012
 21
35.7505
 31
0.0
  0
LINE
  8
0
 62
     0
 10
85.4012
 20
35.7505
 30
0.0
 11
84.6169
 21
35.9022
 31
0.0
  0
LINE
  8
0
 62
     0
 10
84.6169
 20
35.9022
 30
0.0
 11
84.0246
 21
32.8607
 31
0.0
  0
LINE
  8
0
 62
     0
 10
84.0246
 20
32.8607
 30
0.0
 11
84.8099
 21
32.7091
 31
0.0
  0
LINE
  8
0
 62
     0
 10
84.8099
 20
32.7091
 30
0.0
 11
84.6197
 21
31.7266
 31
0.0
  0
LINE
  8
0
 62
     0
 10
84.6197
 20
31.7266
 30
0.0
 11
98.3629
 21
29.0546
 31
0.0
  0
LINE
  8
0
 62
     0
 10
98.3629
 20
29.0546
 30
0.0
 11
98.5531
 21
30.0357
 31
0.0
  0
LINE
  8
0
 62
     0
 10
98.5531
 20
30.0357
 30
0.0
 11
99.3387
 21
29.8841
 31
0.0
  0
LINE
  8
0
 62
     0
 10
99.3387
 20
29.8841
 30
0.0
 11
99.9299
 21
32.9268
 31
0.0
  0
LINE
  8
0
 62
     0
 10
99.9299
 20
32.9268
 30
0.0
 11
99.1443
 21
33.0784
 31
0.0
  0
LINE
  8
0
 62
     0
 10
99.1443
 20
33.0784
 30
0.0
 11
100.251
 21
38.7724
 31
0.0
  0
LINE
  8
0
 62
     0
 10
100.251
 20
38.7724
 30
0.0
 11
101.036
 21
38.6196
 31
0.0
  0
LINE
  8
0
 62
     0
 10
101.036
 20
38.6196
 30
0.0
 11
101.629
 21
41.6624
 31
0.0
  0
LINE
  8
0
 62
     0
 10
101.629
 20
41.6624
 30
0.0
 11
100.842
 21
41.8151
 31
0.0
  0
LINE
  8
0
 62
     0
 10
100.842
 20
41.8151
 30
0.0
 11
101.034
 21
42.7965
 31
0.0
  0
LINE
  8
0
 62
     0
 10
101.034
 20
42.7965
 30
0.0
 11
87.2906
 21
45.4685
 31
0.0
  0
LINE
  8
0
 62
     0
 10
87.2906
 20
45.4685
 30
0.0
 11
87.1001
 21
44.486
 31
0.0
  0
LINE
  8
0
 62
     0
 10
194.43
 20
42.7965
 30
0.0
 11
194.62
 21
41.8151
 31
0.0
  0
LINE
  8
0
 62
     0
 10
194.62
 20
41.8151
 30
0.0
 11
193.835
 21
41.6624
 31
0.0
  0
LINE
  8
0
 62
     0
 10
193.835
 20
41.6624
 30
0.0
 11
194.426
 21
38.6196
 31
0.0
  0
LINE
  8
0
 62
     0
 10
194.426
 20
38.6196
 30
0.0
 11
195.211
 21
38.7724
 31
0.0
  0
LINE
  8
0
 62
     0
 10
195.211
 20
38.7724
 30
0.0
 11
196.318
 21
33.0784
 31
0.0
  0
LINE
  8
0
 62
     0
 10
196.318
 20
33.0784
 30
0.0
 11
195.534
 21
32.9268
 31
0.0
  0
LINE
  8
0
 62
     0
 10
195.534
 20
32.9268
 30
0.0
 11
196.125
 21
29.8841
 31
0.0
  0
LINE
  8
0
 62
     0
 10
196.125
 20
29.8841
 30
0.0
 11
196.909
 21
30.0357
 31
0.0
  0
LINE
  8
0
 62
     0
 10
196.909
 20
30.0357
 30
0.0
 11
197.101
 21
29.0546
 31
0.0
  0
LINE
  8
0
 62
     0
 10
197.101
 20
29.0546
 30
0.0
 11
210.844
 21
31.7266
 31
0.0
  0
LINE
  8
0
 62
     0
 10
210.844
 20
31.7266
 30
0.0
 11
210.652
 21
32.7091
 31
0.0
  0
LINE
  8
0
 62
     0
 10
210.652
 20
32.7091
 30
0.0
 11
211.438
 21
32.8607
 31
0.0
  0
LINE
  8
0
 62
     0
 10
211.438
 20
32.8607
 30
0.0
 11
210.847
 21
35.9022
 31
0.0
  0
LINE
  8
0
 62
     0
 10
210.847
 20
35.9022
 30
0.0
 11
210.061
 21
35.7505
 31
0.0
  0
LINE
  8
0
 62
     0
 10
210.061
 20
35.7505
 30
0.0
 11
208.955
 21
41.4433
 31
0.0
  0
LINE
  8
0
 62
     0
 10
208.955
 20
41.4433
 30
0.0
 11
209.74
 21
41.596
 31
0.0
  0
LINE
  8
0
 62
     0
 10
209.74
 20
41.596
 30
0.0
 11
209.149
 21
44.6401
 31
0.0
  0
LINE
  8
0
 62
     0
 10
209.149
 20
44.6401
 30
0.0
 11
208.362
 21
44.486
 31
0.0
  0
LINE
  8
0
 62
     0
 10
208.362
 20
44.486
 30
0.0
 11
208.172
 21
45.4685
 31
0.0
  0
LINE
  8
0
 62
     0
 10
208.172
 20
45.4685
 30
0.0
 11
194.43
 21
42.7965
 31
0.0
  0
LINE
  8
0
 62
     0
 10
68.4004
 20
48.121
 30
0.0
 11
67.6148
 21
48.2741
 31
0.0
  0
LINE
  8
0
 62
     0
 10
67.6148
 20
48.2741
 30
0.0
 11
67.0235
 21
45.2314
 31
0.0
  0
LINE
  8
0
 62
     0
 10
67.0235
 20
45.2314
 30
0.0
 11
67.8092
 21
45.0783
 31
0.0
  0
LINE
  8
0
 62
     0
 10
67.8092
 20
45.0783
 30
0.0
 11
66.7011
 21
39.3859
 31
0.0
  0
LINE
  8
0
 62
     0
 10
66.7011
 20
39.3859
 30
0.0
 11
65.9172
 21
39.5372
 31
0.0
  0
LINE
  8
0
 62
     0
 10
65.9172
 20
39.5372
 30
0.0
 11
65.3246
 21
36.4945
 31
0.0
  0
LINE
  8
0
 62
     0
 10
65.3246
 20
36.4945
 30
0.0
 11
66.1098
 21
36.3418
 31
0.0
  0
LINE
  8
0
 62
     0
 10
66.1098
 20
36.3418
 30
0.0
 11
65.9197
 21
35.3603
 31
0.0
  0
LINE
  8
0
 62
     0
 10
65.9197
 20
35.3603
 30
0.0
 11
79.6629
 21
32.6898
 31
0.0
  0
LINE
  8
0
 62
     0
 10
79.6629
 20
32.6898
 30
0.0
 11
79.853
 21
33.671
 31
0.0
  0
LINE
  8
0
 62
     0
 10
79.853
 20
33.671
 30
0.0
 11
80.6387
 21
33.518
 31
0.0
  0
LINE
  8
0
 62
     0
 10
80.6387
 20
33.518
 30
0.0
 11
81.2299
 21
36.5622
 31
0.0
  0
LINE
  8
0
 62
     0
 10
81.2299
 20
36.5622
 30
0.0
 11
80.4443
 21
36.7136
 31
0.0
  0
LINE
  8
0
 62
     0
 10
80.4443
 20
36.7136
 30
0.0
 11
81.5509
 21
42.4078
 31
0.0
  0
LINE
  8
0
 62
     0
 10
81.5509
 20
42.4078
 30
0.0
 11
82.3366
 21
42.2547
 31
0.0
  0
LINE
  8
0
 62
     0
 10
82.3366
 20
42.2547
 30
0.0
 11
82.9289
 21
45.2974
 31
0.0
  0
LINE
  8
0
 62
     0
 10
82.9289
 20
45.2974
 30
0.0
 11
82.1422
 21
45.4505
 31
0.0
  0
LINE
  8
0
 62
     0
 10
82.1422
 20
45.4505
 30
0.0
 11
82.3337
 21
46.4316
 31
0.0
  0
LINE
  8
0
 62
     0
 10
82.3337
 20
46.4316
 30
0.0
 11
68.5906
 21
49.1035
 31
0.0
  0
LINE
  8
0
 62
     0
 10
68.5906
 20
49.1035
 30
0.0
 11
68.4004
 21
48.121
 31
0.0
  0
LINE
  8
0
 62
     0
 10
213.13
 20
46.4316
 30
0.0
 11
213.32
 21
45.4505
 31
0.0
  0
LINE
  8
0
 62
     0
 10
213.32
 20
45.4505
 30
0.0
 11
212.535
 21
45.2974
 31
0.0
  0
LINE
  8
0
 62
     0
 10
212.535
 20
45.2974
 30
0.0
 11
213.126
 21
42.2547
 31
0.0
  0
LINE
  8
0
 62
     0
 10
213.126
 20
42.2547
 30
0.0
 11
213.911
 21
42.4078
 31
0.0
  0
LINE
  8
0
 62
     0
 10
213.911
 20
42.4078
 30
0.0
 11
215.018
 21
36.7136
 31
0.0
  0
LINE
  8
0
 62
     0
 10
215.018
 20
36.7136
 30
0.0
 11
214.234
 21
36.5622
 31
0.0
  0
LINE
  8
0
 62
     0
 10
214.234
 20
36.5622
 30
0.0
 11
214.825
 21
33.518
 31
0.0
  0
LINE
  8
0
 62
     0
 10
214.825
 20
33.518
 30
0.0
 11
215.609
 21
33.671
 31
0.0
  0
LINE
  8
0
 62
     0
 10
215.609
 20
33.671
 30
0.0
 11
215.801
 21
32.6898
 31
0.0
  0
LINE
  8
0
 62
     0
 10
215.801
 20
32.6898
 30
0.0
 11
229.544
 21
35.3603
 31
0.0
  0
LINE
  8
0
 62
     0
 10
229.544
 20
35.3603
 30
0.0
 11
229.352
 21
36.3418
 31
0.0
  0
LINE
  8
0
 62
     0
 10
229.352
 20
36.3418
 30
0.0
 11
230.138
 21
36.4945
 31
0.0
  0
LINE
  8
0
 62
     0
 10
230.138
 20
36.4945
 30
0.0
 11
229.547
 21
39.5372
 31
0.0
  0
LINE
  8
0
 62
     0
 10
229.547
 20
39.5372
 30
0.0
 11
228.761
 21
39.3859
 31
0.0
  0
LINE
  8
0
 62
     0
 10
228.761
 20
39.3859
 30
0.0
 11
227.655
 21
45.0783
 31
0.0
  0
LINE
  8
0
 62
     0
 10
227.655
 20
45.0783
 30
0.0
 11
228.44
 21
45.2314
 31
0.0
  0
LINE
  8
0
 62
     0
 10
228.44
 20
45.2314
 30
0.0
 11
227.849
 21
48.2741
 31
0.0
  0
LINE
  8
0
 62
     0
 10
227.849
 20
48.2741
 30
0.0
 11
227.062
 21
48.121
 31
0.0
  0
LINE
  8
0
 62
     0
 10
227.062
 20
48.121
 30
0.0
 11
226.872
 21
49.1035
 31
0.0
  0
LINE
  8
0
 62
     0
 10
226.872
 20
49.1035
 30
0.0
 11
213.13
 21
46.4316
 31
0.0
  0
LINE
  8
0
 62
     0
 10
19.287
 20
50.5933
 30
0.0
 11
19.287
 21
49.5928
 31
0.0
  0
LINE
  8
0
 62
     0
 10
19.287
 20
49.5928
 30
0.0
 11
18.4878
 21
49.5928
 31
0.0
  0
LINE
  8
0
 62
     0
 10
18.4878
 20
49.5928
 30
0.0
 11
18.4878
 21
46.4936
 31
0.0
  0
LINE
  8
0
 62
     0
 10
18.4878
 20
46.4936
 30
0.0
 11
19.287
 21
46.4936
 31
0.0
  0
LINE
  8
0
 62
     0
 10
19.287
 20
46.4936
 30
0.0
 11
19.287
 21
40.6936
 31
0.0
  0
LINE
  8
0
 62
     0
 10
19.287
 20
40.6936
 30
0.0
 11
18.4878
 21
40.6936
 31
0.0
  0
LINE
  8
0
 62
     0
 10
18.4878
 20
40.6936
 30
0.0
 11
18.4878
 21
37.5931
 31
0.0
  0
LINE
  8
0
 62
     0
 10
18.4878
 20
37.5931
 30
0.0
 11
19.287
 21
37.5931
 31
0.0
  0
LINE
  8
0
 62
     0
 10
19.287
 20
37.5931
 30
0.0
 11
19.287
 21
36.5936
 31
0.0
  0
LINE
  8
0
 62
     0
 10
19.287
 20
36.5936
 30
0.0
 11
33.2879
 21
36.5936
 31
0.0
  0
LINE
  8
0
 62
     0
 10
33.2879
 20
36.5936
 30
0.0
 11
33.2879
 21
37.5931
 31
0.0
  0
LINE
  8
0
 62
     0
 10
33.2879
 20
37.5931
 30
0.0
 11
34.0872
 21
37.5931
 31
0.0
  0
LINE
  8
0
 62
     0
 10
34.0872
 20
37.5931
 30
0.0
 11
34.0872
 21
40.6936
 31
0.0
  0
LINE
  8
0
 62
     0
 10
34.0872
 20
40.6936
 30
0.0
 11
33.2879
 21
40.6936
 31
0.0
  0
LINE
  8
0
 62
     0
 10
33.2879
 20
40.6936
 30
0.0
 11
33.2879
 21
46.4936
 31
0.0
  0
LINE
  8
0
 62
     0
 10
33.2879
 20
46.4936
 30
0.0
 11
34.0872
 21
46.4936
 31
0.0
  0
LINE
  8
0
 62
     0
 10
34.0872
 20
46.4936
 30
0.0
 11
34.0872
 21
49.5928
 31
0.0
  0
LINE
  8
0
 62
     0
 10
34.0872
 20
49.5928
 30
0.0
 11
33.2879
 21
49.5928
 31
0.0
  0
LINE
  8
0
 62
     0
 10
33.2879
 20
49.5928
 30
0.0
 11
33.2879
 21
50.5933
 31
0.0
  0
LINE
  8
0
 62
     0
 10
33.2879
 20
50.5933
 30
0.0
 11
19.287
 21
50.5933
 31
0.0
  0
LINE
  8
0
 62
     0
 10
45.4822
 20
50.5933
 30
0.0
 11
45.4822
 21
49.5928
 31
0.0
  0
LINE
  8
0
 62
     0
 10
45.4822
 20
49.5928
 30
0.0
 11
44.6814
 21
49.5928
 31
0.0
  0
LINE
  8
0
 62
     0
 10
44.6814
 20
49.5928
 30
0.0
 11
44.6814
 21
46.4936
 31
0.0
  0
LINE
  8
0
 62
     0
 10
44.6814
 20
46.4936
 30
0.0
 11
45.4822
 21
46.4936
 31
0.0
  0
LINE
  8
0
 62
     0
 10
45.4822
 20
46.4936
 30
0.0
 11
45.4822
 21
40.6936
 31
0.0
  0
LINE
  8
0
 62
     0
 10
45.4822
 20
40.6936
 30
0.0
 11
44.6814
 21
40.6936
 31
0.0
  0
LINE
  8
0
 62
     0
 10
44.6814
 20
40.6936
 30
0.0
 11
44.6814
 21
37.5931
 31
0.0
  0
LINE
  8
0
 62
     0
 10
44.6814
 20
37.5931
 30
0.0
 11
45.4822
 21
37.5931
 31
0.0
  0
LINE
  8
0
 62
     0
 10
45.4822
 20
37.5931
 30
0.0
 11
45.4822
 21
36.5936
 31
0.0
  0
LINE
  8
0
 62
     0
 10
45.4822
 20
36.5936
 30
0.0
 11
59.4815
 21
36.5936
 31
0.0
  0
LINE
  8
0
 62
     0
 10
59.4815
 20
36.5936
 30
0.0
 11
59.4815
 21
37.5931
 31
0.0
  0
LINE
  8
0
 62
     0
 10
59.4815
 20
37.5931
 30
0.0
 11
60.2809
 21
37.5931
 31
0.0
  0
LINE
  8
0
 62
     0
 10
60.2809
 20
37.5931
 30
0.0
 11
60.2809
 21
40.6936
 31
0.0
  0
LINE
  8
0
 62
     0
 10
60.2809
 20
40.6936
 30
0.0
 11
59.4815
 21
40.6936
 31
0.0
  0
LINE
  8
0
 62
     0
 10
59.4815
 20
40.6936
 30
0.0
 11
59.4815
 21
46.4936
 31
0.0
  0
LINE
  8
0
 62
     0
 10
59.4815
 20
46.4936
 30
0.0
 11
60.2809
 21
46.4936
 31
0.0
  0
LINE
  8
0
 62
     0
 10
60.2809
 20
46.4936
 30
0.0
 11
60.2809
 21
49.5928
 31
0.0
  0
LINE
  8
0
 62
     0
 10
60.2809
 20
49.5928
 30
0.0
 11
59.4815
 21
49.5928
 31
0.0
  0
LINE
  8
0
 62
     0
 10
59.4815
 20
49.5928
 30
0.0
 11
59.4815
 21
50.5933
 31
0.0
  0
LINE
  8
0
 62
     0
 10
59.4815
 20
50.5933
 30
0.0
 11
45.4822
 21
50.5933
 31
0.0
  0
LINE
  8
0
 62
     0
 10
235.982
 20
50.5933
 30
0.0
 11
235.982
 21
49.5928
 31
0.0
  0
LINE
  8
0
 62
     0
 10
235.982
 20
49.5928
 30
0.0
 11
235.181
 21
49.5928
 31
0.0
  0
LINE
  8
0
 62
     0
 10
235.181
 20
49.5928
 30
0.0
 11
235.181
 21
46.4936
 31
0.0
  0
LINE
  8
0
 62
     0
 10
235.181
 20
46.4936
 30
0.0
 11
235.982
 21
46.4936
 31
0.0
  0
LINE
  8
0
 62
     0
 10
235.982
 20
46.4936
 30
0.0
 11
235.982
 21
40.6936
 31
0.0
  0
LINE
  8
0
 62
     0
 10
235.982
 20
40.6936
 30
0.0
 11
235.181
 21
40.6936
 31
0.0
  0
LINE
  8
0
 62
     0
 10
235.181
 20
40.6936
 30
0.0
 11
235.181
 21
37.5931
 31
0.0
  0
LINE
  8
0
 62
     0
 10
235.181
 20
37.5931
 30
0.0
 11
235.982
 21
37.5931
 31
0.0
  0
LINE
  8
0
 62
     0
 10
235.982
 20
37.5931
 30
0.0
 11
235.982
 21
36.5936
 31
0.0
  0
LINE
  8
0
 62
     0
 10
235.982
 20
36.5936
 30
0.0
 11
249.982
 21
36.5936
 31
0.0
  0
LINE
  8
0
 62
     0
 10
249.982
 20
36.5936
 30
0.0
 11
249.982
 21
37.5931
 31
0.0
  0
LINE
  8
0
 62
     0
 10
249.982
 20
37.5931
 30
0.0
 11
250.781
 21
37.5931
 31
0.0
  0
LINE
  8
0
 62
     0
 10
250.781
 20
37.5931
 30
0.0
 11
250.781
 21
40.6936
 31
0.0
  0
LINE
  8
0
 62
     0
 10
250.781
 20
40.6936
 30
0.0
 11
249.982
 21
40.6936
 31
0.0
  0
LINE
  8
0
 62
     0
 10
249.982
 20
40.6936
 30
0.0
 11
249.982
 21
46.4936
 31
0.0
  0
LINE
  8
0
 62
     0
 10
249.982
 20
46.4936
 30
0.0
 11
250.781
 21
46.4936
 31
0.0
  0
LINE
  8
0
 62
     0
 10
250.781
 20
46.4936
 30
0.0
 11
250.781
 21
49.5928
 31
0.0
  0
LINE
  8
0
 62
     0
 10
250.781
 20
49.5928
 30
0.0
 11
249.982
 21
49.5928
 31
0.0
  0
LINE
  8
0
 62
     0
 10
249.982
 20
49.5928
 30
0.0
 11
249.982
 21
50.5933
 31
0.0
  0
LINE
  8
0
 62
     0
 10
249.982
 20
50.5933
 30
0.0
 11
235.982
 21
50.5933
 31
0.0
  0
LINE
  8
0
 62
     0
 10
255.032
 20
50.5933
 30
0.0
 11
255.032
 21
49.5928
 31
0.0
  0
LINE
  8
0
 62
     0
 10
255.032
 20
49.5928
 30
0.0
 11
254.231
 21
49.5928
 31
0.0
  0
LINE
  8
0
 62
     0
 10
254.231
 20
49.5928
 30
0.0
 11
254.231
 21
46.4936
 31
0.0
  0
LINE
  8
0
 62
     0
 10
254.231
 20
46.4936
 30
0.0
 11
255.032
 21
46.4936
 31
0.0
  0
LINE
  8
0
 62
     0
 10
255.032
 20
46.4936
 30
0.0
 11
255.032
 21
40.6936
 31
0.0
  0
LINE
  8
0
 62
     0
 10
255.032
 20
40.6936
 30
0.0
 11
254.231
 21
40.6936
 31
0.0
  0
LINE
  8
0
 62
     0
 10
254.231
 20
40.6936
 30
0.0
 11
254.231
 21
37.5931
 31
0.0
  0
LINE
  8
0
 62
     0
 10
254.231
 20
37.5931
 30
0.0
 11
255.032
 21
37.5931
 31
0.0
  0
LINE
  8
0
 62
     0
 10
255.032
 20
37.5931
 30
0.0
 11
255.032
 21
36.5936
 31
0.0
  0
LINE
  8
0
 62
     0
 10
255.032
 20
36.5936
 30
0.0
 11
269.032
 21
36.5936
 31
0.0
  0
LINE
  8
0
 62
     0
 10
269.032
 20
36.5936
 30
0.0
 11
269.032
 21
37.5931
 31
0.0
  0
LINE
  8
0
 62
     0
 10
269.032
 20
37.5931
 30
0.0
 11
269.831
 21
37.5931
 31
0.0
  0
LINE
  8
0
 62
     0
 10
269.831
 20
37.5931
 30
0.0
 11
269.831
 21
40.6936
 31
0.0
  0
LINE
  8
0
 62
     0
 10
269.831
 20
40.6936
 30
0.0
 11
269.032
 21
40.6936
 31
0.0
  0
LINE
  8
0
 62
     0
 10
269.032
 20
40.6936
 30
0.0
 11
269.032
 21
46.4936
 31
0.0
  0
LINE
  8
0
 62
     0
 10
269.032
 20
46.4936
 30
0.0
 11
269.831
 21
46.4936
 31
0.0
  0
LINE
  8
0
 62
     0
 10
269.831
 20
46.4936
 30
0.0
 11
269.831
 21
49.5928
 31
0.0
  0
LINE
  8
0
 62
     0
 10
269.831
 20
49.5928
 30
0.0
 11
269.032
 21
49.5928
 31
0.0
  0
LINE
  8
0
 62
     0
 10
269.032
 20
49.5928
 30
0.0
 11
269.032
 21
50.5933
 31
0.0
  0
LINE
  8
0
 62
     0
 10
269.032
 20
50.5933
 30
0.0
 11
255.032
 21
50.5933
 31
0.0
  0
LINE
  8
0
 62
     0
 10
274.082
 20
50.5933
 30
0.0
 11
274.082
 21
49.5928
 31
0.0
  0
LINE
  8
0
 62
     0
 10
274.082
 20
49.5928
 30
0.0
 11
273.281
 21
49.5928
 31
0.0
  0
LINE
  8
0
 62
     0
 10
273.281
 20
49.5928
 30
0.0
 11
273.281
 21
46.4936
 31
0.0
  0
LINE
  8
0
 62
     0
 10
273.281
 20
46.4936
 30
0.0
 11
274.082
 21
46.4936
 31
0.0
  0
LINE
  8
0
 62
     0
 10
274.082
 20
46.4936
 30
0.0
 11
274.082
 21
40.6936
 31
0.0
  0
LINE
  8
0
 62
     0
 10
274.082
 20
40.6936
 30
0.0
 11
273.281
 21
40.6936
 31
0.0
  0
LINE
  8
0
 62
     0
 10
273.281
 20
40.6936
 30
0.0
 11
273.281
 21
37.5931
 31
0.0
  0
LINE
  8
0
 62
     0
 10
273.281
 20
37.5931
 30
0.0
 11
274.082
 21
37.5931
 31
0.0
  0
LINE
  8
0
 62
     0
 10
274.082
 20
37.5931
 30
0.0
 11
274.082
 21
36.5936
 31
0.0
  0
LINE
  8
0
 62
     0
 10
274.082
 20
36.5936
 30
0.0
 11
288.082
 21
36.5936
 31
0.0
  0
LINE
  8
0
 62
     0
 10
288.082
 20
36.5936
 30
0.0
 11
288.082
 21
37.5931
 31
0.0
  0
LINE
  8
0
 62
     0
 10
288.082
 20
37.5931
 30
0.0
 11
288.881
 21
37.5931
 31
0.0
  0
LINE
  8
0
 62
     0
 10
288.881
 20
37.5931
 30
0.0
 11
288.881
 21
40.6936
 31
0.0
  0
LINE
  8
0
 62
     0
 10
288.881
 20
40.6936
 30
0.0
 11
288.082
 21
40.6936
 31
0.0
  0
LINE
  8
0
 62
     0
 10
288.082
 20
40.6936
 30
0.0
 11
288.082
 21
46.4936
 31
0.0
  0
LINE
  8
0
 62
     0
 10
288.082
 20
46.4936
 30
0.0
 11
288.881
 21
46.4936
 31
0.0
  0
LINE
  8
0
 62
     0
 10
288.881
 20
46.4936
 30
0.0
 11
288.881
 21
49.5928
 31
0.0
  0
LINE
  8
0
 62
     0
 10
288.881
 20
49.5928
 30
0.0
 11
288.082
 21
49.5928
 31
0.0
  0
LINE
  8
0
 62
     0
 10
288.082
 20
49.5928
 30
0.0
 11
288.082
 21
50.5933
 31
0.0
  0
LINE
  8
0
 62
     0
 10
288.082
 20
50.5933
 30
0.0
 11
274.082
 21
50.5933
 31
0.0
  0
LINE
  8
0
 62
     0
 10
118.784
 20
57.7342
 30
0.0
 11
118
 21
57.8859
 31
0.0
  0
LINE
  8
0
 62
     0
 10
118
 20
57.8859
 30
0.0
 11
117.409
 21
54.8432
 31
0.0
  0
LINE
  8
0
 62
     0
 10
117.409
 20
54.8432
 30
0.0
 11
118.193
 21
54.6915
 31
0.0
  0
LINE
  8
0
 62
     0
 10
118.193
 20
54.6915
 30
0.0
 11
117.086
 21
48.9977
 31
0.0
  0
LINE
  8
0
 62
     0
 10
117.086
 20
48.9977
 30
0.0
 11
116.301
 21
49.1504
 31
0.0
  0
LINE
  8
0
 62
     0
 10
116.301
 20
49.1504
 30
0.0
 11
115.71
 21
46.1077
 31
0.0
  0
LINE
  8
0
 62
     0
 10
115.71
 20
46.1077
 30
0.0
 11
116.495
 21
45.955
 31
0.0
  0
LINE
  8
0
 62
     0
 10
116.495
 20
45.955
 30
0.0
 11
116.305
 21
44.9735
 31
0.0
  0
LINE
  8
0
 62
     0
 10
116.305
 20
44.9735
 30
0.0
 11
130.047
 21
42.3016
 31
0.0
  0
LINE
  8
0
 62
     0
 10
130.047
 20
42.3016
 30
0.0
 11
130.237
 21
43.2841
 31
0.0
  0
LINE
  8
0
 62
     0
 10
130.237
 20
43.2841
 30
0.0
 11
131.024
 21
43.1299
 31
0.0
  0
LINE
  8
0
 62
     0
 10
131.024
 20
43.1299
 30
0.0
 11
131.615
 21
46.174
 31
0.0
  0
LINE
  8
0
 62
     0
 10
131.615
 20
46.174
 30
0.0
 11
130.829
 21
46.3268
 31
0.0
  0
LINE
  8
0
 62
     0
 10
130.829
 20
46.3268
 30
0.0
 11
131.936
 21
52.0196
 31
0.0
  0
LINE
  8
0
 62
     0
 10
131.936
 20
52.0196
 30
0.0
 11
132.722
 21
51.8679
 31
0.0
  0
LINE
  8
0
 62
     0
 10
132.722
 20
51.8679
 30
0.0
 11
133.313
 21
54.9106
 31
0.0
  0
LINE
  8
0
 62
     0
 10
133.313
 20
54.9106
 30
0.0
 11
132.527
 21
55.0623
 31
0.0
  0
LINE
  8
0
 62
     0
 10
132.527
 20
55.0623
 30
0.0
 11
132.719
 21
56.0447
 31
0.0
  0
LINE
  8
0
 62
     0
 10
132.719
 20
56.0447
 30
0.0
 11
118.976
 21
58.7156
 31
0.0
  0
LINE
  8
0
 62
     0
 10
118.976
 20
58.7156
 30
0.0
 11
118.784
 21
57.7342
 31
0.0
  0
LINE
  8
0
 62
     0
 10
162.745
 20
56.0447
 30
0.0
 11
162.935
 21
55.0623
 31
0.0
  0
LINE
  8
0
 62
     0
 10
162.935
 20
55.0623
 30
0.0
 11
162.151
 21
54.9106
 31
0.0
  0
LINE
  8
0
 62
     0
 10
162.151
 20
54.9106
 30
0.0
 11
162.742
 21
51.8679
 31
0.0
  0
LINE
  8
0
 62
     0
 10
162.742
 20
51.8679
 30
0.0
 11
163.526
 21
52.0196
 31
0.0
  0
LINE
  8
0
 62
     0
 10
163.526
 20
52.0196
 30
0.0
 11
164.633
 21
46.3268
 31
0.0
  0
LINE
  8
0
 62
     0
 10
164.633
 20
46.3268
 30
0.0
 11
163.849
 21
46.174
 31
0.0
  0
LINE
  8
0
 62
     0
 10
163.849
 20
46.174
 30
0.0
 11
164.44
 21
43.1299
 31
0.0
  0
LINE
  8
0
 62
     0
 10
164.44
 20
43.1299
 30
0.0
 11
165.225
 21
43.2841
 31
0.0
  0
LINE
  8
0
 62
     0
 10
165.225
 20
43.2841
 30
0.0
 11
165.416
 21
42.3016
 31
0.0
  0
LINE
  8
0
 62
     0
 10
165.416
 20
42.3016
 30
0.0
 11
179.159
 21
44.9735
 31
0.0
  0
LINE
  8
0
 62
     0
 10
179.159
 20
44.9735
 30
0.0
 11
178.967
 21
45.955
 31
0.0
  0
LINE
  8
0
 62
     0
 10
178.967
 20
45.955
 30
0.0
 11
179.754
 21
46.1077
 31
0.0
  0
LINE
  8
0
 62
     0
 10
179.754
 20
46.1077
 30
0.0
 11
179.161
 21
49.1504
 31
0.0
  0
LINE
  8
0
 62
     0
 10
179.161
 20
49.1504
 30
0.0
 11
178.376
 21
48.9977
 31
0.0
  0
LINE
  8
0
 62
     0
 10
178.376
 20
48.9977
 30
0.0
 11
177.269
 21
54.6915
 31
0.0
  0
LINE
  8
0
 62
     0
 10
177.269
 20
54.6915
 30
0.0
 11
178.055
 21
54.8432
 31
0.0
  0
LINE
  8
0
 62
     0
 10
178.055
 20
54.8432
 30
0.0
 11
177.464
 21
57.8859
 31
0.0
  0
LINE
  8
0
 62
     0
 10
177.464
 20
57.8859
 30
0.0
 11
176.678
 21
57.7342
 31
0.0
  0
LINE
  8
0
 62
     0
 10
176.678
 20
57.7342
 30
0.0
 11
176.488
 21
58.7156
 31
0.0
  0
LINE
  8
0
 62
     0
 10
176.488
 20
58.7156
 30
0.0
 11
162.745
 21
56.0447
 31
0.0
  0
LINE
  8
0
 62
     0
 10
100.084
 20
61.3696
 30
0.0
 11
99.2999
 21
61.5213
 31
0.0
  0
LINE
  8
0
 62
     0
 10
99.2999
 20
61.5213
 30
0.0
 11
98.709
 21
58.4786
 31
0.0
  0
LINE
  8
0
 62
     0
 10
98.709
 20
58.4786
 30
0.0
 11
99.4929
 21
58.3269
 31
0.0
  0
LINE
  8
0
 62
     0
 10
99.4929
 20
58.3269
 30
0.0
 11
98.3865
 21
52.6327
 31
0.0
  0
LINE
  8
0
 62
     0
 10
98.3865
 20
52.6327
 30
0.0
 11
97.6009
 21
52.7858
 31
0.0
  0
LINE
  8
0
 62
     0
 10
97.6009
 20
52.7858
 30
0.0
 11
97.0097
 21
49.7431
 31
0.0
  0
LINE
  8
0
 62
     0
 10
97.0097
 20
49.7431
 30
0.0
 11
97.7953
 21
49.59
 31
0.0
  0
LINE
  8
0
 62
     0
 10
97.7953
 20
49.59
 30
0.0
 11
97.6051
 21
48.6075
 31
0.0
  0
LINE
  8
0
 62
     0
 10
97.6051
 20
48.6075
 30
0.0
 11
111.347
 21
45.937
 31
0.0
  0
LINE
  8
0
 62
     0
 10
111.347
 20
45.937
 30
0.0
 11
111.537
 21
46.918
 31
0.0
  0
LINE
  8
0
 62
     0
 10
111.537
 20
46.918
 30
0.0
 11
112.324
 21
46.7653
 31
0.0
  0
LINE
  8
0
 62
     0
 10
112.324
 20
46.7653
 30
0.0
 11
112.915
 21
49.809
 31
0.0
  0
LINE
  8
0
 62
     0
 10
112.915
 20
49.809
 30
0.0
 11
112.13
 21
49.9622
 31
0.0
  0
LINE
  8
0
 62
     0
 10
112.13
 20
49.9622
 30
0.0
 11
113.236
 21
55.6549
 31
0.0
  0
LINE
  8
0
 62
     0
 10
113.236
 20
55.6549
 30
0.0
 11
114.022
 21
55.5018
 31
0.0
  0
LINE
  8
0
 62
     0
 10
114.022
 20
55.5018
 30
0.0
 11
114.613
 21
58.5459
 31
0.0
  0
LINE
  8
0
 62
     0
 10
114.613
 20
58.5459
 30
0.0
 11
113.827
 21
58.6976
 31
0.0
  0
LINE
  8
0
 62
     0
 10
113.827
 20
58.6976
 30
0.0
 11
114.019
 21
59.6801
 31
0.0
  0
LINE
  8
0
 62
     0
 10
114.019
 20
59.6801
 30
0.0
 11
100.276
 21
62.3507
 31
0.0
  0
LINE
  8
0
 62
     0
 10
100.276
 20
62.3507
 30
0.0
 11
100.084
 21
61.3696
 31
0.0
  0
LINE
  8
0
 62
     0
 10
181.445
 20
59.6801
 30
0.0
 11
181.635
 21
58.6976
 31
0.0
  0
LINE
  8
0
 62
     0
 10
181.635
 20
58.6976
 30
0.0
 11
180.851
 21
58.5459
 31
0.0
  0
LINE
  8
0
 62
     0
 10
180.851
 20
58.5459
 30
0.0
 11
181.442
 21
55.5018
 31
0.0
  0
LINE
  8
0
 62
     0
 10
181.442
 20
55.5018
 30
0.0
 11
182.226
 21
55.6549
 31
0.0
  0
LINE
  8
0
 62
     0
 10
182.226
 20
55.6549
 30
0.0
 11
183.333
 21
49.9622
 31
0.0
  0
LINE
  8
0
 62
     0
 10
183.333
 20
49.9622
 30
0.0
 11
182.549
 21
49.809
 31
0.0
  0
LINE
  8
0
 62
     0
 10
182.549
 20
49.809
 30
0.0
 11
183.14
 21
46.7653
 31
0.0
  0
LINE
  8
0
 62
     0
 10
183.14
 20
46.7653
 30
0.0
 11
183.925
 21
46.918
 31
0.0
  0
LINE
  8
0
 62
     0
 10
183.925
 20
46.918
 30
0.0
 11
184.115
 21
45.937
 31
0.0
  0
LINE
  8
0
 62
     0
 10
184.115
 20
45.937
 30
0.0
 11
197.859
 21
48.6075
 31
0.0
  0
LINE
  8
0
 62
     0
 10
197.859
 20
48.6075
 30
0.0
 11
197.667
 21
49.59
 31
0.0
  0
LINE
  8
0
 62
     0
 10
197.667
 20
49.59
 30
0.0
 11
198.454
 21
49.7431
 31
0.0
  0
LINE
  8
0
 62
     0
 10
198.454
 20
49.7431
 30
0.0
 11
197.861
 21
52.7858
 31
0.0
  0
LINE
  8
0
 62
     0
 10
197.861
 20
52.7858
 30
0.0
 11
197.076
 21
52.6327
 31
0.0
  0
LINE
  8
0
 62
     0
 10
197.076
 20
52.6327
 30
0.0
 11
195.969
 21
58.3269
 31
0.0
  0
LINE
  8
0
 62
     0
 10
195.969
 20
58.3269
 30
0.0
 11
196.755
 21
58.4786
 31
0.0
  0
LINE
  8
0
 62
     0
 10
196.755
 20
58.4786
 30
0.0
 11
196.164
 21
61.5213
 31
0.0
  0
LINE
  8
0
 62
     0
 10
196.164
 20
61.5213
 30
0.0
 11
195.378
 21
61.3696
 31
0.0
  0
LINE
  8
0
 62
     0
 10
195.378
 20
61.3696
 30
0.0
 11
195.188
 21
62.3507
 31
0.0
  0
LINE
  8
0
 62
     0
 10
195.188
 20
62.3507
 30
0.0
 11
181.445
 21
59.6801
 31
0.0
  0
LINE
  8
0
 62
     0
 10
81.3841
 20
65.005
 30
0.0
 11
80.6002
 21
65.1563
 31
0.0
  0
LINE
  8
0
 62
     0
 10
80.6002
 20
65.1563
 30
0.0
 11
80.0089
 21
62.1136
 31
0.0
  0
LINE
  8
0
 62
     0
 10
80.0089
 20
62.1136
 30
0.0
 11
80.7932
 21
61.9622
 31
0.0
  0
LINE
  8
0
 62
     0
 10
80.7932
 20
61.9622
 30
0.0
 11
79.6865
 21
56.2681
 31
0.0
  0
LINE
  8
0
 62
     0
 10
79.6865
 20
56.2681
 30
0.0
 11
78.9009
 21
56.4212
 31
0.0
  0
LINE
  8
0
 62
     0
 10
78.9009
 20
56.4212
 30
0.0
 11
78.3096
 21
53.377
 31
0.0
  0
LINE
  8
0
 62
     0
 10
78.3096
 20
53.377
 30
0.0
 11
79.0952
 21
53.2239
 31
0.0
  0
LINE
  8
0
 62
     0
 10
79.0952
 20
53.2239
 30
0.0
 11
78.9051
 21
52.2429
 31
0.0
  0
LINE
  8
0
 62
     0
 10
78.9051
 20
52.2429
 30
0.0
 11
92.6469
 21
49.5723
 31
0.0
  0
LINE
  8
0
 62
     0
 10
92.6469
 20
49.5723
 30
0.0
 11
92.837
 21
50.5534
 31
0.0
  0
LINE
  8
0
 62
     0
 10
92.837
 20
50.5534
 30
0.0
 11
93.624
 21
50.4003
 31
0.0
  0
LINE
  8
0
 62
     0
 10
93.624
 20
50.4003
 30
0.0
 11
94.215
 21
53.443
 31
0.0
  0
LINE
  8
0
 62
     0
 10
94.215
 20
53.443
 30
0.0
 11
93.4297
 21
53.5961
 31
0.0
  0
LINE
  8
0
 62
     0
 10
93.4297
 20
53.5961
 30
0.0
 11
94.5363
 21
59.2899
 31
0.0
  0
LINE
  8
0
 62
     0
 10
94.5363
 20
59.2899
 30
0.0
 11
95.3216
 21
59.1372
 31
0.0
  0
LINE
  8
0
 62
     0
 10
95.3216
 20
59.1372
 30
0.0
 11
95.9129
 21
62.1799
 31
0.0
  0
LINE
  8
0
 62
     0
 10
95.9129
 20
62.1799
 30
0.0
 11
95.1272
 21
62.3327
 31
0.0
  0
LINE
  8
0
 62
     0
 10
95.1272
 20
62.3327
 30
0.0
 11
95.3188
 21
63.3141
 31
0.0
  0
LINE
  8
0
 62
     0
 10
95.3188
 20
63.3141
 30
0.0
 11
81.5756
 21
65.986
 31
0.0
  0
LINE
  8
0
 62
     0
 10
81.5756
 20
65.986
 30
0.0
 11
81.3841
 21
65.005
 31
0.0
  0
LINE
  8
0
 62
     0
 10
200.145
 20
63.3141
 30
0.0
 11
200.335
 21
62.3327
 31
0.0
  0
LINE
  8
0
 62
     0
 10
200.335
 20
62.3327
 30
0.0
 11
199.551
 21
62.1799
 31
0.0
  0
LINE
  8
0
 62
     0
 10
199.551
 20
62.1799
 30
0.0
 11
200.142
 21
59.1372
 31
0.0
  0
LINE
  8
0
 62
     0
 10
200.142
 20
59.1372
 30
0.0
 11
200.926
 21
59.2899
 31
0.0
  0
LINE
  8
0
 62
     0
 10
200.926
 20
59.2899
 30
0.0
 11
202.033
 21
53.5961
 31
0.0
  0
LINE
  8
0
 62
     0
 10
202.033
 20
53.5961
 30
0.0
 11
201.249
 21
53.443
 31
0.0
  0
LINE
  8
0
 62
     0
 10
201.249
 20
53.443
 30
0.0
 11
201.84
 21
50.4003
 31
0.0
  0
LINE
  8
0
 62
     0
 10
201.84
 20
50.4003
 30
0.0
 11
202.625
 21
50.5534
 31
0.0
  0
LINE
  8
0
 62
     0
 10
202.625
 20
50.5534
 30
0.0
 11
202.815
 21
49.5723
 31
0.0
  0
LINE
  8
0
 62
     0
 10
202.815
 20
49.5723
 30
0.0
 11
216.559
 21
52.2429
 31
0.0
  0
LINE
  8
0
 62
     0
 10
216.559
 20
52.2429
 30
0.0
 11
216.367
 21
53.2239
 31
0.0
  0
LINE
  8
0
 62
     0
 10
216.367
 20
53.2239
 30
0.0
 11
217.154
 21
53.377
 31
0.0
  0
LINE
  8
0
 62
     0
 10
217.154
 20
53.377
 30
0.0
 11
216.561
 21
56.4212
 31
0.0
  0
LINE
  8
0
 62
     0
 10
216.561
 20
56.4212
 30
0.0
 11
215.776
 21
56.2681
 31
0.0
  0
LINE
  8
0
 62
     0
 10
215.776
 20
56.2681
 30
0.0
 11
214.67
 21
61.9622
 31
0.0
  0
LINE
  8
0
 62
     0
 10
214.67
 20
61.9622
 30
0.0
 11
215.455
 21
62.1136
 31
0.0
  0
LINE
  8
0
 62
     0
 10
215.455
 20
62.1136
 30
0.0
 11
214.864
 21
65.1563
 31
0.0
  0
LINE
  8
0
 62
     0
 10
214.864
 20
65.1563
 30
0.0
 11
214.078
 21
65.005
 31
0.0
  0
LINE
  8
0
 62
     0
 10
214.078
 20
65.005
 30
0.0
 11
213.888
 21
65.986
 31
0.0
  0
LINE
  8
0
 62
     0
 10
213.888
 20
65.986
 30
0.0
 11
200.145
 21
63.3141
 31
0.0
  0
LINE
  8
0
 62
     0
 10
62.6844
 20
68.6386
 30
0.0
 11
61.9002
 21
68.7917
 31
0.0
  0
LINE
  8
0
 62
     0
 10
61.9002
 20
68.7917
 30
0.0
 11
61.3089
 21
65.749
 31
0.0
  0
LINE
  8
0
 62
     0
 10
61.3089
 20
65.749
 30
0.0
 11
62.0931
 21
65.5959
 31
0.0
  0
LINE
  8
0
 62
     0
 10
62.0931
 20
65.5959
 30
0.0
 11
60.9865
 21
59.902
 31
0.0
  0
LINE
  8
0
 62
     0
 10
60.9865
 20
59.902
 30
0.0
 11
60.2008
 21
60.0548
 31
0.0
  0
LINE
  8
0
 62
     0
 10
60.2008
 20
60.0548
 30
0.0
 11
59.6099
 21
57.0121
 31
0.0
  0
LINE
  8
0
 62
     0
 10
59.6099
 20
57.0121
 30
0.0
 11
60.3952
 21
56.8593
 31
0.0
  0
LINE
  8
0
 62
     0
 10
60.3952
 20
56.8593
 30
0.0
 11
60.2051
 21
55.8782
 31
0.0
  0
LINE
  8
0
 62
     0
 10
60.2051
 20
55.8782
 30
0.0
 11
73.9468
 21
53.2059
 31
0.0
  0
LINE
  8
0
 62
     0
 10
73.9468
 20
53.2059
 30
0.0
 11
74.137
 21
54.1884
 31
0.0
  0
LINE
  8
0
 62
     0
 10
74.137
 20
54.1884
 30
0.0
 11
74.924
 21
54.0357
 31
0.0
  0
LINE
  8
0
 62
     0
 10
74.924
 20
54.0357
 30
0.0
 11
75.5153
 21
57.0784
 31
0.0
  0
LINE
  8
0
 62
     0
 10
75.5153
 20
57.0784
 30
0.0
 11
74.7296
 21
57.2311
 31
0.0
  0
LINE
  8
0
 62
     0
 10
74.7296
 20
57.2311
 30
0.0
 11
75.8363
 21
62.9239
 31
0.0
  0
LINE
  8
0
 62
     0
 10
75.8363
 20
62.9239
 30
0.0
 11
76.6216
 21
62.7712
 31
0.0
  0
LINE
  8
0
 62
     0
 10
76.6216
 20
62.7712
 30
0.0
 11
77.2128
 21
65.8153
 31
0.0
  0
LINE
  8
0
 62
     0
 10
77.2128
 20
65.8153
 30
0.0
 11
76.4275
 21
65.968
 31
0.0
  0
LINE
  8
0
 62
     0
 10
76.4275
 20
65.968
 30
0.0
 11
76.6191
 21
66.9491
 31
0.0
  0
LINE
  8
0
 62
     0
 10
76.6191
 20
66.9491
 30
0.0
 11
62.8756
 21
69.62
 31
0.0
  0
LINE
  8
0
 62
     0
 10
62.8756
 20
69.62
 30
0.0
 11
62.6844
 21
68.6386
 31
0.0
  0
LINE
  8
0
 62
     0
 10
218.845
 20
66.9491
 30
0.0
 11
219.035
 21
65.968
 31
0.0
  0
LINE
  8
0
 62
     0
 10
219.035
 20
65.968
 30
0.0
 11
218.249
 21
65.8153
 31
0.0
  0
LINE
  8
0
 62
     0
 10
218.249
 20
65.8153
 30
0.0
 11
218.842
 21
62.7712
 31
0.0
  0
LINE
  8
0
 62
     0
 10
218.842
 20
62.7712
 30
0.0
 11
219.626
 21
62.9239
 31
0.0
  0
LINE
  8
0
 62
     0
 10
219.626
 20
62.9239
 30
0.0
 11
220.734
 21
57.2311
 31
0.0
  0
LINE
  8
0
 62
     0
 10
220.734
 20
57.2311
 30
0.0
 11
219.949
 21
57.0784
 31
0.0
  0
LINE
  8
0
 62
     0
 10
219.949
 20
57.0784
 30
0.0
 11
220.54
 21
54.0357
 31
0.0
  0
LINE
  8
0
 62
     0
 10
220.54
 20
54.0357
 30
0.0
 11
221.325
 21
54.1884
 31
0.0
  0
LINE
  8
0
 62
     0
 10
221.325
 20
54.1884
 30
0.0
 11
221.516
 21
53.2059
 31
0.0
  0
LINE
  8
0
 62
     0
 10
221.516
 20
53.2059
 30
0.0
 11
235.259
 21
55.8782
 31
0.0
  0
LINE
  8
0
 62
     0
 10
235.259
 20
55.8782
 30
0.0
 11
235.067
 21
56.8593
 31
0.0
  0
LINE
  8
0
 62
     0
 10
235.067
 20
56.8593
 30
0.0
 11
235.854
 21
57.0121
 31
0.0
  0
LINE
  8
0
 62
     0
 10
235.854
 20
57.0121
 30
0.0
 11
235.262
 21
60.0548
 31
0.0
  0
LINE
  8
0
 62
     0
 10
235.262
 20
60.0548
 30
0.0
 11
234.476
 21
59.902
 31
0.0
  0
LINE
  8
0
 62
     0
 10
234.476
 20
59.902
 30
0.0
 11
233.37
 21
65.5959
 31
0.0
  0
LINE
  8
0
 62
     0
 10
233.37
 20
65.5959
 30
0.0
 11
234.155
 21
65.749
 31
0.0
  0
LINE
  8
0
 62
     0
 10
234.155
 20
65.749
 30
0.0
 11
233.564
 21
68.7917
 31
0.0
  0
LINE
  8
0
 62
     0
 10
233.564
 20
68.7917
 30
0.0
 11
232.778
 21
68.6386
 31
0.0
  0
LINE
  8
0
 62
     0
 10
232.778
 20
68.6386
 30
0.0
 11
232.588
 21
69.62
 31
0.0
  0
LINE
  8
0
 62
     0
 10
232.588
 20
69.62
 30
0.0
 11
218.845
 21
66.9491
 31
0.0
  0
LINE
  8
0
 62
     0
 10
15.0013
 20
69.6433
 30
0.0
 11
15.0013
 21
68.6428
 31
0.0
  0
LINE
  8
0
 62
     0
 10
15.0013
 20
68.6428
 30
0.0
 11
14.2021
 21
68.6428
 31
0.0
  0
LINE
  8
0
 62
     0
 10
14.2021
 20
68.6428
 30
0.0
 11
14.2021
 21
65.5436
 31
0.0
  0
LINE
  8
0
 62
     0
 10
14.2021
 20
65.5436
 30
0.0
 11
15.0013
 21
65.5436
 31
0.0
  0
LINE
  8
0
 62
     0
 10
15.0013
 20
65.5436
 30
0.0
 11
15.0013
 21
59.7436
 31
0.0
  0
LINE
  8
0
 62
     0
 10
15.0013
 20
59.7436
 30
0.0
 11
14.2021
 21
59.7436
 31
0.0
  0
LINE
  8
0
 62
     0
 10
14.2021
 20
59.7436
 30
0.0
 11
14.2021
 21
56.6431
 31
0.0
  0
LINE
  8
0
 62
     0
 10
14.2021
 20
56.6431
 30
0.0
 11
15.0013
 21
56.6431
 31
0.0
  0
LINE
  8
0
 62
     0
 10
15.0013
 20
56.6431
 30
0.0
 11
15.0013
 21
55.6436
 31
0.0
  0
LINE
  8
0
 62
     0
 10
15.0013
 20
55.6436
 30
0.0
 11
29.0008
 21
55.6436
 31
0.0
  0
LINE
  8
0
 62
     0
 10
29.0008
 20
55.6436
 30
0.0
 11
29.0008
 21
56.6431
 31
0.0
  0
LINE
  8
0
 62
     0
 10
29.0008
 20
56.6431
 30
0.0
 11
29.8015
 21
56.6431
 31
0.0
  0
LINE
  8
0
 62
     0
 10
29.8015
 20
56.6431
 30
0.0
 11
29.8015
 21
59.7436
 31
0.0
  0
LINE
  8
0
 62
     0
 10
29.8015
 20
59.7436
 30
0.0
 11
29.0008
 21
59.7436
 31
0.0
  0
LINE
  8
0
 62
     0
 10
29.0008
 20
59.7436
 30
0.0
 11
29.0008
 21
65.5436
 31
0.0
  0
LINE
  8
0
 62
     0
 10
29.0008
 20
65.5436
 30
0.0
 11
29.8015
 21
65.5436
 31
0.0
  0
LINE
  8
0
 62
     0
 10
29.8015
 20
65.5436
 30
0.0
 11
29.8015
 21
68.6428
 31
0.0
  0
LINE
  8
0
 62
     0
 10
29.8015
 20
68.6428
 30
0.0
 11
29.0008
 21
68.6428
 31
0.0
  0
LINE
  8
0
 62
     0
 10
29.0008
 20
68.6428
 30
0.0
 11
29.0008
 21
69.6433
 31
0.0
  0
LINE
  8
0
 62
     0
 10
29.0008
 20
69.6433
 30
0.0
 11
15.0013
 21
69.6433
 31
0.0
  0
LINE
  8
0
 62
     0
 10
38.8137
 20
69.6433
 30
0.0
 11
38.8137
 21
68.6428
 31
0.0
  0
LINE
  8
0
 62
     0
 10
38.8137
 20
68.6428
 30
0.0
 11
38.0146
 21
68.6428
 31
0.0
  0
LINE
  8
0
 62
     0
 10
38.0146
 20
68.6428
 30
0.0
 11
38.0146
 21
65.5436
 31
0.0
  0
LINE
  8
0
 62
     0
 10
38.0146
 20
65.5436
 30
0.0
 11
38.8137
 21
65.5436
 31
0.0
  0
LINE
  8
0
 62
     0
 10
38.8137
 20
65.5436
 30
0.0
 11
38.8137
 21
59.7436
 31
0.0
  0
LINE
  8
0
 62
     0
 10
38.8137
 20
59.7436
 30
0.0
 11
38.0146
 21
59.7436
 31
0.0
  0
LINE
  8
0
 62
     0
 10
38.0146
 20
59.7436
 30
0.0
 11
38.0146
 21
56.6431
 31
0.0
  0
LINE
  8
0
 62
     0
 10
38.0146
 20
56.6431
 30
0.0
 11
38.8137
 21
56.6431
 31
0.0
  0
LINE
  8
0
 62
     0
 10
38.8137
 20
56.6431
 30
0.0
 11
38.8137
 21
55.6436
 31
0.0
  0
LINE
  8
0
 62
     0
 10
38.8137
 20
55.6436
 30
0.0
 11
52.8147
 21
55.6436
 31
0.0
  0
LINE
  8
0
 62
     0
 10
52.8147
 20
55.6436
 30
0.0
 11
52.8147
 21
56.6431
 31
0.0
  0
LINE
  8
0
 62
     0
 10
52.8147
 20
56.6431
 30
0.0
 11
53.6141
 21
56.6431
 31
0.0
  0
LINE
  8
0
 62
     0
 10
53.6141
 20
56.6431
 30
0.0
 11
53.6141
 21
59.7436
 31
0.0
  0
LINE
  8
0
 62
     0
 10
53.6141
 20
59.7436
 30
0.0
 11
52.8147
 21
59.7436
 31
0.0
  0
LINE
  8
0
 62
     0
 10
52.8147
 20
59.7436
 30
0.0
 11
52.8147
 21
65.5436
 31
0.0
  0
LINE
  8
0
 62
     0
 10
52.8147
 20
65.5436
 30
0.0
 11
53.6141
 21
65.5436
 31
0.0
  0
LINE
  8
0
 62
     0
 10
53.6141
 20
65.5436
 30
0.0
 11
53.6141
 21
68.6428
 31
0.0
  0
LINE
  8
0
 62
     0
 10
53.6141
 20
68.6428
 30
0.0
 11
52.8147
 21
68.6428
 31
0.0
  0
LINE
  8
0
 62
     0
 10
52.8147
 20
68.6428
 30
0.0
 11
52.8147
 21
69.6433
 31
0.0
  0
LINE
  8
0
 62
     0
 10
52.8147
 20
69.6433
 30
0.0
 11
38.8137
 21
69.6433
 31
0.0
  0
LINE
  8
0
 62
     0
 10
242.649
 20
69.6433
 30
0.0
 11
242.649
 21
68.6428
 31
0.0
  0
LINE
  8
0
 62
     0
 10
242.649
 20
68.6428
 30
0.0
 11
241.85
 21
68.6428
 31
0.0
  0
LINE
  8
0
 62
     0
 10
241.85
 20
68.6428
 30
0.0
 11
241.85
 21
65.5436
 31
0.0
  0
LINE
  8
0
 62
     0
 10
241.85
 20
65.5436
 30
0.0
 11
242.649
 21
65.5436
 31
0.0
  0
LINE
  8
0
 62
     0
 10
242.649
 20
65.5436
 30
0.0
 11
242.649
 21
59.7436
 31
0.0
  0
LINE
  8
0
 62
     0
 10
242.649
 20
59.7436
 30
0.0
 11
241.85
 21
59.7436
 31
0.0
  0
LINE
  8
0
 62
     0
 10
241.85
 20
59.7436
 30
0.0
 11
241.85
 21
56.6431
 31
0.0
  0
LINE
  8
0
 62
     0
 10
241.85
 20
56.6431
 30
0.0
 11
242.649
 21
56.6431
 31
0.0
  0
LINE
  8
0
 62
     0
 10
242.649
 20
56.6431
 30
0.0
 11
242.649
 21
55.6436
 31
0.0
  0
LINE
  8
0
 62
     0
 10
242.649
 20
55.6436
 30
0.0
 11
256.65
 21
55.6436
 31
0.0
  0
LINE
  8
0
 62
     0
 10
256.65
 20
55.6436
 30
0.0
 11
256.65
 21
56.6431
 31
0.0
  0
LINE
  8
0
 62
     0
 10
256.65
 20
56.6431
 30
0.0
 11
257.449
 21
56.6431
 31
0.0
  0
LINE
  8
0
 62
     0
 10
257.449
 20
56.6431
 30
0.0
 11
257.449
 21
59.7436
 31
0.0
  0
LINE
  8
0
 62
     0
 10
257.449
 20
59.7436
 30
0.0
 11
256.65
 21
59.7436
 31
0.0
  0
LINE
  8
0
 62
     0
 10
256.65
 20
59.7436
 30
0.0
 11
256.65
 21
65.5436
 31
0.0
  0
LINE
  8
0
 62
     0
 10
256.65
 20
65.5436
 30
0.0
 11
257.449
 21
65.5436
 31
0.0
  0
LINE
  8
0
 62
     0
 10
257.449
 20
65.5436
 30
0.0
 11
257.449
 21
68.6428
 31
0.0
  0
LINE
  8
0
 62
     0
 10
257.449
 20
68.6428
 30
0.0
 11
256.65
 21
68.6428
 31
0.0
  0
LINE
  8
0
 62
     0
 10
256.65
 20
68.6428
 30
0.0
 11
256.65
 21
69.6433
 31
0.0
  0
LINE
  8
0
 62
     0
 10
256.65
 20
69.6433
 30
0.0
 11
242.649
 21
69.6433
 31
0.0
  0
LINE
  8
0
 62
     0
 10
261.699
 20
69.6433
 30
0.0
 11
261.699
 21
68.6428
 31
0.0
  0
LINE
  8
0
 62
     0
 10
261.699
 20
68.6428
 30
0.0
 11
260.9
 21
68.6428
 31
0.0
  0
LINE
  8
0
 62
     0
 10
260.9
 20
68.6428
 30
0.0
 11
260.9
 21
65.5436
 31
0.0
  0
LINE
  8
0
 62
     0
 10
260.9
 20
65.5436
 30
0.0
 11
261.699
 21
65.5436
 31
0.0
  0
LINE
  8
0
 62
     0
 10
261.699
 20
65.5436
 30
0.0
 11
261.699
 21
59.7436
 31
0.0
  0
LINE
  8
0
 62
     0
 10
261.699
 20
59.7436
 30
0.0
 11
260.9
 21
59.7436
 31
0.0
  0
LINE
  8
0
 62
     0
 10
260.9
 20
59.7436
 30
0.0
 11
260.9
 21
56.6431
 31
0.0
  0
LINE
  8
0
 62
     0
 10
260.9
 20
56.6431
 30
0.0
 11
261.699
 21
56.6431
 31
0.0
  0
LINE
  8
0
 62
     0
 10
261.699
 20
56.6431
 30
0.0
 11
261.699
 21
55.6436
 31
0.0
  0
LINE
  8
0
 62
     0
 10
261.699
 20
55.6436
 30
0.0
 11
275.7
 21
55.6436
 31
0.0
  0
LINE
  8
0
 62
     0
 10
275.7
 20
55.6436
 30
0.0
 11
275.7
 21
56.6431
 31
0.0
  0
LINE
  8
0
 62
     0
 10
275.7
 20
56.6431
 30
0.0
 11
276.499
 21
56.6431
 31
0.0
  0
LINE
  8
0
 62
     0
 10
276.499
 20
56.6431
 30
0.0
 11
276.499
 21
59.7436
 31
0.0
  0
LINE
  8
0
 62
     0
 10
276.499
 20
59.7436
 30
0.0
 11
275.7
 21
59.7436
 31
0.0
  0
LINE
  8
0
 62
     0
 10
275.7
 20
59.7436
 30
0.0
 11
275.7
 21
65.5436
 31
0.0
  0
LINE
  8
0
 62
     0
 10
275.7
 20
65.5436
 30
0.0
 11
276.499
 21
65.5436
 31
0.0
  0
LINE
  8
0
 62
     0
 10
276.499
 20
65.5436
 30
0.0
 11
276.499
 21
68.6428
 31
0.0
  0
LINE
  8
0
 62
     0
 10
276.499
 20
68.6428
 30
0.0
 11
275.7
 21
68.6428
 31
0.0
  0
LINE
  8
0
 62
     0
 10
275.7
 20
68.6428
 30
0.0
 11
275.7
 21
69.6433
 31
0.0
  0
LINE
  8
0
 62
     0
 10
275.7
 20
69.6433
 30
0.0
 11
261.699
 21
69.6433
 31
0.0
  0
LINE
  8
0
 62
     0
 10
280.749
 20
69.6433
 30
0.0
 11
280.749
 21
68.6428
 31
0.0
  0
LINE
  8
0
 62
     0
 10
280.749
 20
68.6428
 30
0.0
 11
279.95
 21
68.6428
 31
0.0
  0
LINE
  8
0
 62
     0
 10
279.95
 20
68.6428
 30
0.0
 11
279.95
 21
65.5436
 31
0.0
  0
LINE
  8
0
 62
     0
 10
279.95
 20
65.5436
 30
0.0
 11
280.749
 21
65.5436
 31
0.0
  0
LINE
  8
0
 62
     0
 10
280.749
 20
65.5436
 30
0.0
 11
280.749
 21
59.7436
 31
0.0
  0
LINE
  8
0
 62
     0
 10
280.749
 20
59.7436
 30
0.0
 11
279.95
 21
59.7436
 31
0.0
  0
LINE
  8
0
 62
     0
 10
279.95
 20
59.7436
 30
0.0
 11
279.95
 21
56.6431
 31
0.0
  0
LINE
  8
0
 62
     0
 10
279.95
 20
56.6431
 30
0.0
 11
280.749
 21
56.6431
 31
0.0
  0
LINE
  8
0
 62
     0
 10
280.749
 20
56.6431
 30
0.0
 11
280.749
 21
55.6436
 31
0.0
  0
LINE
  8
0
 62
     0
 10
280.749
 20
55.6436
 30
0.0
 11
294.75
 21
55.6436
 31
0.0
  0
LINE
  8
0
 62
     0
 10
294.75
 20
55.6436
 30
0.0
 11
294.75
 21
56.6431
 31
0.0
  0
LINE
  8
0
 62
     0
 10
294.75
 20
56.6431
 30
0.0
 11
295.549
 21
56.6431
 31
0.0
  0
LINE
  8
0
 62
     0
 10
295.549
 20
56.6431
 30
0.0
 11
295.549
 21
59.7436
 31
0.0
  0
LINE
  8
0
 62
     0
 10
295.549
 20
59.7436
 30
0.0
 11
294.75
 21
59.7436
 31
0.0
  0
LINE
  8
0
 62
     0
 10
294.75
 20
59.7436
 30
0.0
 11
294.75
 21
65.5436
 31
0.0
  0
LINE
  8
0
 62
     0
 10
294.75
 20
65.5436
 30
0.0
 11
295.549
 21
65.5436
 31
0.0
  0
LINE
  8
0
 62
     0
 10
295.549
 20
65.5436
 30
0.0
 11
295.549
 21
68.6428
 31
0.0
  0
LINE
  8
0
 62
     0
 10
295.549
 20
68.6428
 30
0.0
 11
294.75
 21
68.6428
 31
0.0
  0
LINE
  8
0
 62
     0
 10
294.75
 20
68.6428
 30
0.0
 11
294.75
 21
69.6433
 31
0.0
  0
LINE
  8
0
 62
     0
 10
294.75
 20
69.6433
 30
0.0
 11
280.749
 21
69.6433
 31
0.0
  0
LINE
  8
0
 62
     0
 10
154.434
 20
73.8353
 30
0.0
 11
154.626
 21
72.8543
 31
0.0
  0
LINE
  8
0
 62
     0
 10
154.626
 20
72.8543
 30
0.0
 11
153.84
 21
72.7012
 31
0.0
  0
LINE
  8
0
 62
     0
 10
153.84
 20
72.7012
 30
0.0
 11
154.431
 21
69.6584
 31
0.0
  0
LINE
  8
0
 62
     0
 10
154.431
 20
69.6584
 30
0.0
 11
155.217
 21
69.8115
 31
0.0
  0
LINE
  8
0
 62
     0
 10
155.217
 20
69.8115
 30
0.0
 11
156.323
 21
64.1174
 31
0.0
  0
LINE
  8
0
 62
     0
 10
156.323
 20
64.1174
 30
0.0
 11
155.539
 21
63.9657
 31
0.0
  0
LINE
  8
0
 62
     0
 10
155.539
 20
63.9657
 30
0.0
 11
156.129
 21
60.923
 31
0.0
  0
LINE
  8
0
 62
     0
 10
156.129
 20
60.923
 30
0.0
 11
156.916
 21
61.0747
 31
0.0
  0
LINE
  8
0
 62
     0
 10
156.916
 20
61.0747
 30
0.0
 11
157.106
 21
60.0936
 31
0.0
  0
LINE
  8
0
 62
     0
 10
157.106
 20
60.0936
 30
0.0
 11
170.849
 21
62.7641
 31
0.0
  0
LINE
  8
0
 62
     0
 10
170.849
 20
62.7641
 30
0.0
 11
170.658
 21
63.7452
 31
0.0
  0
LINE
  8
0
 62
     0
 10
170.658
 20
63.7452
 30
0.0
 11
171.443
 21
63.8983
 31
0.0
  0
LINE
  8
0
 62
     0
 10
171.443
 20
63.8983
 30
0.0
 11
170.852
 21
66.941
 31
0.0
  0
LINE
  8
0
 62
     0
 10
170.852
 20
66.941
 30
0.0
 11
170.066
 21
66.7893
 31
0.0
  0
LINE
  8
0
 62
     0
 10
170.066
 20
66.7893
 30
0.0
 11
168.96
 21
72.4821
 31
0.0
  0
LINE
  8
0
 62
     0
 10
168.96
 20
72.4821
 30
0.0
 11
169.744
 21
72.6352
 31
0.0
  0
LINE
  8
0
 62
     0
 10
169.744
 20
72.6352
 30
0.0
 11
169.153
 21
75.6789
 31
0.0
  0
LINE
  8
0
 62
     0
 10
169.153
 20
75.6789
 30
0.0
 11
168.369
 21
75.5262
 31
0.0
  0
LINE
  8
0
 62
     0
 10
168.369
 20
75.5262
 30
0.0
 11
168.177
 21
76.5073
 31
0.0
  0
LINE
  8
0
 62
     0
 10
168.177
 20
76.5073
 30
0.0
 11
154.434
 21
73.8353
 31
0.0
  0
LINE
  8
0
 62
     0
 10
117.745
 20
77.3423
 30
0.0
 11
116.96
 21
77.4954
 31
0.0
  0
LINE
  8
0
 62
     0
 10
116.96
 20
77.4954
 30
0.0
 11
116.368
 21
74.4527
 31
0.0
  0
LINE
  8
0
 62
     0
 10
116.368
 20
74.4527
 30
0.0
 11
117.154
 21
74.2996
 31
0.0
  0
LINE
  8
0
 62
     0
 10
117.154
 20
74.2996
 30
0.0
 11
116.046
 21
68.6072
 31
0.0
  0
LINE
  8
0
 62
     0
 10
116.046
 20
68.6072
 30
0.0
 11
115.262
 21
68.7599
 31
0.0
  0
LINE
  8
0
 62
     0
 10
115.262
 20
68.7599
 30
0.0
 11
114.669
 21
65.7158
 31
0.0
  0
LINE
  8
0
 62
     0
 10
114.669
 20
65.7158
 30
0.0
 11
115.456
 21
65.563
 31
0.0
  0
LINE
  8
0
 62
     0
 10
115.456
 20
65.563
 30
0.0
 11
115.264
 21
64.5816
 31
0.0
  0
LINE
  8
0
 62
     0
 10
115.264
 20
64.5816
 30
0.0
 11
129.008
 21
61.9111
 31
0.0
  0
LINE
  8
0
 62
     0
 10
129.008
 20
61.9111
 30
0.0
 11
129.198
 21
62.8922
 31
0.0
  0
LINE
  8
0
 62
     0
 10
129.198
 20
62.8922
 30
0.0
 11
129.983
 21
62.7394
 31
0.0
  0
LINE
  8
0
 62
     0
 10
129.983
 20
62.7394
 30
0.0
 11
130.575
 21
65.7821
 31
0.0
  0
LINE
  8
0
 62
     0
 10
130.575
 20
65.7821
 30
0.0
 11
129.789
 21
65.9349
 31
0.0
  0
LINE
  8
0
 62
     0
 10
129.789
 20
65.9349
 30
0.0
 11
130.897
 21
71.6291
 31
0.0
  0
LINE
  8
0
 62
     0
 10
130.897
 20
71.6291
 30
0.0
 11
131.681
 21
71.476
 31
0.0
  0
LINE
  8
0
 62
     0
 10
131.681
 20
71.476
 30
0.0
 11
132.272
 21
74.5187
 31
0.0
  0
LINE
  8
0
 62
     0
 10
132.272
 20
74.5187
 30
0.0
 11
131.487
 21
74.6718
 31
0.0
  0
LINE
  8
0
 62
     0
 10
131.487
 20
74.6718
 30
0.0
 11
131.679
 21
75.6528
 31
0.0
  0
LINE
  8
0
 62
     0
 10
131.679
 20
75.6528
 30
0.0
 11
117.935
 21
78.3248
 31
0.0
  0
LINE
  8
0
 62
     0
 10
117.935
 20
78.3248
 30
0.0
 11
117.745
 21
77.3423
 31
0.0
  0
LINE
  8
0
 62
     0
 10
173.134
 20
77.4707
 30
0.0
 11
173.325
 21
76.4893
 31
0.0
  0
LINE
  8
0
 62
     0
 10
173.325
 20
76.4893
 30
0.0
 11
172.54
 21
76.3365
 31
0.0
  0
LINE
  8
0
 62
     0
 10
172.54
 20
76.3365
 30
0.0
 11
173.131
 21
73.2938
 31
0.0
  0
LINE
  8
0
 62
     0
 10
173.131
 20
73.2938
 30
0.0
 11
173.917
 21
73.4466
 31
0.0
  0
LINE
  8
0
 62
     0
 10
173.917
 20
73.4466
 30
0.0
 11
175.023
 21
67.7527
 31
0.0
  0
LINE
  8
0
 62
     0
 10
175.023
 20
67.7527
 30
0.0
 11
174.239
 21
67.5996
 31
0.0
  0
LINE
  8
0
 62
     0
 10
174.239
 20
67.5996
 30
0.0
 11
174.829
 21
64.5569
 31
0.0
  0
LINE
  8
0
 62
     0
 10
174.829
 20
64.5569
 30
0.0
 11
175.616
 21
64.71
 31
0.0
  0
LINE
  8
0
 62
     0
 10
175.616
 20
64.71
 30
0.0
 11
175.806
 21
63.7275
 31
0.0
  0
LINE
  8
0
 62
     0
 10
175.806
 20
63.7275
 30
0.0
 11
189.549
 21
66.3995
 31
0.0
  0
LINE
  8
0
 62
     0
 10
189.549
 20
66.3995
 30
0.0
 11
189.358
 21
67.3806
 31
0.0
  0
LINE
  8
0
 62
     0
 10
189.358
 20
67.3806
 30
0.0
 11
190.143
 21
67.5337
 31
0.0
  0
LINE
  8
0
 62
     0
 10
190.143
 20
67.5337
 30
0.0
 11
189.552
 21
70.5764
 31
0.0
  0
LINE
  8
0
 62
     0
 10
189.552
 20
70.5764
 30
0.0
 11
188.766
 21
70.4233
 31
0.0
  0
LINE
  8
0
 62
     0
 10
188.766
 20
70.4233
 30
0.0
 11
187.66
 21
76.1175
 31
0.0
  0
LINE
  8
0
 62
     0
 10
187.66
 20
76.1175
 30
0.0
 11
188.444
 21
76.2702
 31
0.0
  0
LINE
  8
0
 62
     0
 10
188.444
 20
76.2702
 30
0.0
 11
187.854
 21
79.3129
 31
0.0
  0
LINE
  8
0
 62
     0
 10
187.854
 20
79.3129
 30
0.0
 11
187.069
 21
79.1602
 31
0.0
  0
LINE
  8
0
 62
     0
 10
187.069
 20
79.1602
 30
0.0
 11
186.877
 21
80.1426
 31
0.0
  0
LINE
  8
0
 62
     0
 10
186.877
 20
80.1426
 30
0.0
 11
173.134
 21
77.4707
 31
0.0
  0
LINE
  8
0
 62
     0
 10
99.0452
 20
80.9777
 30
0.0
 11
98.2595
 21
81.1308
 31
0.0
  0
LINE
  8
0
 62
     0
 10
98.2595
 20
81.1308
 30
0.0
 11
97.6683
 21
78.0881
 31
0.0
  0
LINE
  8
0
 62
     0
 10
97.6683
 20
78.0881
 30
0.0
 11
98.4539
 21
77.935
 31
0.0
  0
LINE
  8
0
 62
     0
 10
98.4539
 20
77.935
 30
0.0
 11
97.3459
 21
72.2408
 31
0.0
  0
LINE
  8
0
 62
     0
 10
97.3459
 20
72.2408
 30
0.0
 11
96.562
 21
72.3939
 31
0.0
  0
LINE
  8
0
 62
     0
 10
96.562
 20
72.3939
 30
0.0
 11
95.9693
 21
69.3512
 31
0.0
  0
LINE
  8
0
 62
     0
 10
95.9693
 20
69.3512
 30
0.0
 11
96.7549
 21
69.1981
 31
0.0
  0
LINE
  8
0
 62
     0
 10
96.7549
 20
69.1981
 30
0.0
 11
96.5648
 21
68.217
 31
0.0
  0
LINE
  8
0
 62
     0
 10
96.5648
 20
68.217
 30
0.0
 11
110.308
 21
65.5451
 31
0.0
  0
LINE
  8
0
 62
     0
 10
110.308
 20
65.5451
 30
0.0
 11
110.498
 21
66.5275
 31
0.0
  0
LINE
  8
0
 62
     0
 10
110.498
 20
66.5275
 30
0.0
 11
111.283
 21
66.3744
 31
0.0
  0
LINE
  8
0
 62
     0
 10
111.283
 20
66.3744
 30
0.0
 11
111.875
 21
69.4171
 31
0.0
  0
LINE
  8
0
 62
     0
 10
111.875
 20
69.4171
 30
0.0
 11
111.089
 21
69.5702
 31
0.0
  0
LINE
  8
0
 62
     0
 10
111.089
 20
69.5702
 30
0.0
 11
112.197
 21
75.263
 31
0.0
  0
LINE
  8
0
 62
     0
 10
112.197
 20
75.263
 30
0.0
 11
112.981
 21
75.1099
 31
0.0
  0
LINE
  8
0
 62
     0
 10
112.981
 20
75.1099
 30
0.0
 11
113.573
 21
78.154
 31
0.0
  0
LINE
  8
0
 62
     0
 10
113.573
 20
78.154
 30
0.0
 11
112.787
 21
78.3071
 31
0.0
  0
LINE
  8
0
 62
     0
 10
112.787
 20
78.3071
 30
0.0
 11
112.978
 21
79.2882
 31
0.0
  0
LINE
  8
0
 62
     0
 10
112.978
 20
79.2882
 30
0.0
 11
99.2353
 21
81.9602
 31
0.0
  0
LINE
  8
0
 62
     0
 10
99.2353
 20
81.9602
 30
0.0
 11
99.0452
 21
80.9777
 31
0.0
  0
LINE
  8
0
 62
     0
 10
191.834
 20
81.1057
 30
0.0
 11
192.025
 21
80.1247
 31
0.0
  0
LINE
  8
0
 62
     0
 10
192.025
 20
80.1247
 30
0.0
 11
191.24
 21
79.9715
 31
0.0
  0
LINE
  8
0
 62
     0
 10
191.24
 20
79.9715
 30
0.0
 11
191.831
 21
76.9288
 31
0.0
  0
LINE
  8
0
 62
     0
 10
191.831
 20
76.9288
 30
0.0
 11
192.617
 21
77.0805
 31
0.0
  0
LINE
  8
0
 62
     0
 10
192.617
 20
77.0805
 30
0.0
 11
193.723
 21
71.3878
 31
0.0
  0
LINE
  8
0
 62
     0
 10
193.723
 20
71.3878
 30
0.0
 11
192.939
 21
71.235
 31
0.0
  0
LINE
  8
0
 62
     0
 10
192.939
 20
71.235
 30
0.0
 11
193.529
 21
68.1909
 31
0.0
  0
LINE
  8
0
 62
     0
 10
193.529
 20
68.1909
 30
0.0
 11
194.316
 21
68.345
 31
0.0
  0
LINE
  8
0
 62
     0
 10
194.316
 20
68.345
 30
0.0
 11
194.506
 21
67.3626
 31
0.0
  0
LINE
  8
0
 62
     0
 10
194.506
 20
67.3626
 30
0.0
 11
208.249
 21
70.0345
 31
0.0
  0
LINE
  8
0
 62
     0
 10
208.249
 20
70.0345
 30
0.0
 11
208.058
 21
71.0159
 31
0.0
  0
LINE
  8
0
 62
     0
 10
208.058
 20
71.0159
 30
0.0
 11
208.843
 21
71.1687
 31
0.0
  0
LINE
  8
0
 62
     0
 10
208.843
 20
71.1687
 30
0.0
 11
208.252
 21
74.2114
 31
0.0
  0
LINE
  8
0
 62
     0
 10
208.252
 20
74.2114
 30
0.0
 11
207.466
 21
74.0586
 31
0.0
  0
LINE
  8
0
 62
     0
 10
207.466
 20
74.0586
 30
0.0
 11
206.36
 21
79.7525
 31
0.0
  0
LINE
  8
0
 62
     0
 10
206.36
 20
79.7525
 30
0.0
 11
207.144
 21
79.9042
 31
0.0
  0
LINE
  8
0
 62
     0
 10
207.144
 20
79.9042
 30
0.0
 11
206.554
 21
82.9469
 31
0.0
  0
LINE
  8
0
 62
     0
 10
206.554
 20
82.9469
 30
0.0
 11
205.769
 21
82.7952
 31
0.0
  0
LINE
  8
0
 62
     0
 10
205.769
 20
82.7952
 30
0.0
 11
205.577
 21
83.7766
 31
0.0
  0
LINE
  8
0
 62
     0
 10
205.577
 20
83.7766
 30
0.0
 11
191.834
 21
81.1057
 31
0.0
  0
LINE
  8
0
 62
     0
 10
80.3451
 20
84.613
 30
0.0
 11
79.5595
 21
84.7658
 31
0.0
  0
LINE
  8
0
 62
     0
 10
79.5595
 20
84.7658
 30
0.0
 11
78.9686
 21
81.7231
 31
0.0
  0
LINE
  8
0
 62
     0
 10
78.9686
 20
81.7231
 30
0.0
 11
79.7539
 21
81.5689
 31
0.0
  0
LINE
  8
0
 62
     0
 10
79.7539
 20
81.5689
 30
0.0
 11
78.6462
 21
75.8762
 31
0.0
  0
LINE
  8
0
 62
     0
 10
78.6462
 20
75.8762
 30
0.0
 11
77.8619
 21
76.0293
 31
0.0
  0
LINE
  8
0
 62
     0
 10
77.8619
 20
76.0293
 30
0.0
 11
77.2693
 21
72.9851
 31
0.0
  0
LINE
  8
0
 62
     0
 10
77.2693
 20
72.9851
 30
0.0
 11
78.0549
 21
72.8334
 31
0.0
  0
LINE
  8
0
 62
     0
 10
78.0549
 20
72.8334
 30
0.0
 11
77.8648
 21
71.851
 31
0.0
  0
LINE
  8
0
 62
     0
 10
77.8648
 20
71.851
 30
0.0
 11
91.6079
 21
69.1804
 31
0.0
  0
LINE
  8
0
 62
     0
 10
91.6079
 20
69.1804
 30
0.0
 11
91.7981
 21
70.1615
 31
0.0
  0
LINE
  8
0
 62
     0
 10
91.7981
 20
70.1615
 30
0.0
 11
92.5834
 21
70.0098
 31
0.0
  0
LINE
  8
0
 62
     0
 10
92.5834
 20
70.0098
 30
0.0
 11
93.1746
 21
73.0525
 31
0.0
  0
LINE
  8
0
 62
     0
 10
93.1746
 20
73.0525
 30
0.0
 11
92.3893
 21
73.2042
 31
0.0
  0
LINE
  8
0
 62
     0
 10
92.3893
 20
73.2042
 30
0.0
 11
93.497
 21
78.898
 31
0.0
  0
LINE
  8
0
 62
     0
 10
93.497
 20
78.898
 30
0.0
 11
94.2813
 21
78.7453
 31
0.0
  0
LINE
  8
0
 62
     0
 10
94.2813
 20
78.7453
 30
0.0
 11
94.8725
 21
81.788
 31
0.0
  0
LINE
  8
0
 62
     0
 10
94.8725
 20
81.788
 30
0.0
 11
94.0869
 21
81.9408
 31
0.0
  0
LINE
  8
0
 62
     0
 10
94.0869
 20
81.9408
 30
0.0
 11
94.2785
 21
82.9236
 31
0.0
  0
LINE
  8
0
 62
     0
 10
94.2785
 20
82.9236
 30
0.0
 11
80.5353
 21
85.5941
 31
0.0
  0
LINE
  8
0
 62
     0
 10
80.5353
 20
85.5941
 30
0.0
 11
80.3451
 21
84.613
 31
0.0
  0
LINE
  8
0
 62
     0
 10
210.534
 20
84.7411
 30
0.0
 11
210.725
 21
83.7586
 31
0.0
  0
LINE
  8
0
 62
     0
 10
210.725
 20
83.7586
 30
0.0
 11
209.94
 21
83.6069
 31
0.0
  0
LINE
  8
0
 62
     0
 10
209.94
 20
83.6069
 30
0.0
 11
210.531
 21
80.5628
 31
0.0
  0
LINE
  8
0
 62
     0
 10
210.531
 20
80.5628
 30
0.0
 11
211.317
 21
80.7159
 31
0.0
  0
LINE
  8
0
 62
     0
 10
211.317
 20
80.7159
 30
0.0
 11
212.423
 21
75.0231
 31
0.0
  0
LINE
  8
0
 62
     0
 10
212.423
 20
75.0231
 30
0.0
 11
211.639
 21
74.87
 31
0.0
  0
LINE
  8
0
 62
     0
 10
211.639
 20
74.87
 30
0.0
 11
212.229
 21
71.8263
 31
0.0
  0
LINE
  8
0
 62
     0
 10
212.229
 20
71.8263
 30
0.0
 11
213.016
 21
71.979
 31
0.0
  0
LINE
  8
0
 62
     0
 10
213.016
 20
71.979
 30
0.0
 11
213.206
 21
70.9979
 31
0.0
  0
LINE
  8
0
 62
     0
 10
213.206
 20
70.9979
 30
0.0
 11
226.949
 21
73.6699
 31
0.0
  0
LINE
  8
0
 62
     0
 10
226.949
 20
73.6699
 30
0.0
 11
226.757
 21
74.651
 31
0.0
  0
LINE
  8
0
 62
     0
 10
226.757
 20
74.651
 30
0.0
 11
227.543
 21
74.8041
 31
0.0
  0
LINE
  8
0
 62
     0
 10
227.543
 20
74.8041
 30
0.0
 11
226.952
 21
77.8468
 31
0.0
  0
LINE
  8
0
 62
     0
 10
226.952
 20
77.8468
 30
0.0
 11
226.167
 21
77.6937
 31
0.0
  0
LINE
  8
0
 62
     0
 10
226.167
 20
77.6937
 30
0.0
 11
225.06
 21
83.3878
 31
0.0
  0
LINE
  8
0
 62
     0
 10
225.06
 20
83.3878
 30
0.0
 11
225.844
 21
83.5395
 31
0.0
  0
LINE
  8
0
 62
     0
 10
225.844
 20
83.5395
 30
0.0
 11
225.254
 21
86.5822
 31
0.0
  0
LINE
  8
0
 62
     0
 10
225.254
 20
86.5822
 30
0.0
 11
224.469
 21
86.4306
 31
0.0
  0
LINE
  8
0
 62
     0
 10
224.469
 20
86.4306
 30
0.0
 11
224.277
 21
87.4116
 31
0.0
  0
LINE
  8
0
 62
     0
 10
224.277
 20
87.4116
 30
0.0
 11
210.534
 21
84.7411
 31
0.0
  0
LINE
  8
0
 62
     0
 10
61.6451
 20
88.2481
 30
0.0
 11
60.8598
 21
88.4012
 31
0.0
  0
LINE
  8
0
 62
     0
 10
60.8598
 20
88.4012
 30
0.0
 11
60.2686
 21
85.3571
 31
0.0
  0
LINE
  8
0
 62
     0
 10
60.2686
 20
85.3571
 30
0.0
 11
61.0538
 21
85.2039
 31
0.0
  0
LINE
  8
0
 62
     0
 10
61.0538
 20
85.2039
 30
0.0
 11
59.9461
 21
79.5115
 31
0.0
  0
LINE
  8
0
 62
     0
 10
59.9461
 20
79.5115
 30
0.0
 11
59.1605
 21
79.6629
 31
0.0
  0
LINE
  8
0
 62
     0
 10
59.1605
 20
79.6629
 30
0.0
 11
58.5692
 21
76.6202
 31
0.0
  0
LINE
  8
0
 62
     0
 10
58.5692
 20
76.6202
 30
0.0
 11
59.3549
 21
76.4688
 31
0.0
  0
LINE
  8
0
 62
     0
 10
59.3549
 20
76.4688
 30
0.0
 11
59.1633
 21
75.4863
 31
0.0
  0
LINE
  8
0
 62
     0
 10
59.1633
 20
75.4863
 30
0.0
 11
72.9079
 21
72.8155
 31
0.0
  0
LINE
  8
0
 62
     0
 10
72.9079
 20
72.8155
 30
0.0
 11
73.098
 21
73.7969
 31
0.0
  0
LINE
  8
0
 62
     0
 10
73.098
 20
73.7969
 30
0.0
 11
73.8837
 21
73.6452
 31
0.0
  0
LINE
  8
0
 62
     0
 10
73.8837
 20
73.6452
 30
0.0
 11
74.4746
 21
76.6879
 31
0.0
  0
LINE
  8
0
 62
     0
 10
74.4746
 20
76.6879
 30
0.0
 11
73.6893
 21
76.8396
 31
0.0
  0
LINE
  8
0
 62
     0
 10
73.6893
 20
76.8396
 30
0.0
 11
74.797
 21
82.5334
 31
0.0
  0
LINE
  8
0
 62
     0
 10
74.797
 20
82.5334
 30
0.0
 11
75.5812
 21
82.3807
 31
0.0
  0
LINE
  8
0
 62
     0
 10
75.5812
 20
82.3807
 30
0.0
 11
76.1725
 21
85.4234
 31
0.0
  0
LINE
  8
0
 62
     0
 10
76.1725
 20
85.4234
 30
0.0
 11
75.3869
 21
85.5761
 31
0.0
  0
LINE
  8
0
 62
     0
 10
75.3869
 20
85.5761
 30
0.0
 11
75.5784
 21
86.5572
 31
0.0
  0
LINE
  8
0
 62
     0
 10
75.5784
 20
86.5572
 30
0.0
 11
61.8352
 21
89.2295
 31
0.0
  0
LINE
  8
0
 62
     0
 10
61.8352
 20
89.2295
 30
0.0
 11
61.6451
 21
88.2481
 31
0.0
  0
LINE
  8
0
 62
     0
 10
16.9072
 20
88.6933
 30
0.0
 11
16.9072
 21
87.6928
 31
0.0
  0
LINE
  8
0
 62
     0
 10
16.9072
 20
87.6928
 30
0.0
 11
16.1065
 21
87.6928
 31
0.0
  0
LINE
  8
0
 62
     0
 10
16.1065
 20
87.6928
 30
0.0
 11
16.1065
 21
84.5936
 31
0.0
  0
LINE
  8
0
 62
     0
 10
16.1065
 20
84.5936
 30
0.0
 11
16.9072
 21
84.5936
 31
0.0
  0
LINE
  8
0
 62
     0
 10
16.9072
 20
84.5936
 30
0.0
 11
16.9072
 21
78.7936
 31
0.0
  0
LINE
  8
0
 62
     0
 10
16.9072
 20
78.7936
 30
0.0
 11
16.1065
 21
78.7936
 31
0.0
  0
LINE
  8
0
 62
     0
 10
16.1065
 20
78.7936
 30
0.0
 11
16.1065
 21
75.6931
 31
0.0
  0
LINE
  8
0
 62
     0
 10
16.1065
 20
75.6931
 30
0.0
 11
16.9072
 21
75.6931
 31
0.0
  0
LINE
  8
0
 62
     0
 10
16.9072
 20
75.6931
 30
0.0
 11
16.9072
 21
74.6936
 31
0.0
  0
LINE
  8
0
 62
     0
 10
16.9072
 20
74.6936
 30
0.0
 11
30.9066
 21
74.6936
 31
0.0
  0
LINE
  8
0
 62
     0
 10
30.9066
 20
74.6936
 30
0.0
 11
30.9066
 21
75.6931
 31
0.0
  0
LINE
  8
0
 62
     0
 10
30.9066
 20
75.6931
 30
0.0
 11
31.7059
 21
75.6931
 31
0.0
  0
LINE
  8
0
 62
     0
 10
31.7059
 20
75.6931
 30
0.0
 11
31.7059
 21
78.7936
 31
0.0
  0
LINE
  8
0
 62
     0
 10
31.7059
 20
78.7936
 30
0.0
 11
30.9066
 21
78.7936
 31
0.0
  0
LINE
  8
0
 62
     0
 10
30.9066
 20
78.7936
 30
0.0
 11
30.9066
 21
84.5936
 31
0.0
  0
LINE
  8
0
 62
     0
 10
30.9066
 20
84.5936
 30
0.0
 11
31.7059
 21
84.5936
 31
0.0
  0
LINE
  8
0
 62
     0
 10
31.7059
 20
84.5936
 30
0.0
 11
31.7059
 21
87.6928
 31
0.0
  0
LINE
  8
0
 62
     0
 10
31.7059
 20
87.6928
 30
0.0
 11
30.9066
 21
87.6928
 31
0.0
  0
LINE
  8
0
 62
     0
 10
30.9066
 20
87.6928
 30
0.0
 11
30.9066
 21
88.6933
 31
0.0
  0
LINE
  8
0
 62
     0
 10
30.9066
 20
88.6933
 30
0.0
 11
16.9072
 21
88.6933
 31
0.0
  0
LINE
  8
0
 62
     0
 10
35.9572
 20
88.6933
 30
0.0
 11
35.9572
 21
87.6928
 31
0.0
  0
LINE
  8
0
 62
     0
 10
35.9572
 20
87.6928
 30
0.0
 11
35.1565
 21
87.6928
 31
0.0
  0
LINE
  8
0
 62
     0
 10
35.1565
 20
87.6928
 30
0.0
 11
35.1565
 21
84.5936
 31
0.0
  0
LINE
  8
0
 62
     0
 10
35.1565
 20
84.5936
 30
0.0
 11
35.9572
 21
84.5936
 31
0.0
  0
LINE
  8
0
 62
     0
 10
35.9572
 20
84.5936
 30
0.0
 11
35.9572
 21
78.7936
 31
0.0
  0
LINE
  8
0
 62
     0
 10
35.9572
 20
78.7936
 30
0.0
 11
35.1565
 21
78.7936
 31
0.0
  0
LINE
  8
0
 62
     0
 10
35.1565
 20
78.7936
 30
0.0
 11
35.1565
 21
75.6931
 31
0.0
  0
LINE
  8
0
 62
     0
 10
35.1565
 20
75.6931
 30
0.0
 11
35.9572
 21
75.6931
 31
0.0
  0
LINE
  8
0
 62
     0
 10
35.9572
 20
75.6931
 30
0.0
 11
35.9572
 21
74.6936
 31
0.0
  0
LINE
  8
0
 62
     0
 10
35.9572
 20
74.6936
 30
0.0
 11
49.9565
 21
74.6936
 31
0.0
  0
LINE
  8
0
 62
     0
 10
49.9565
 20
74.6936
 30
0.0
 11
49.9565
 21
75.6931
 31
0.0
  0
LINE
  8
0
 62
     0
 10
49.9565
 20
75.6931
 30
0.0
 11
50.7559
 21
75.6931
 31
0.0
  0
LINE
  8
0
 62
     0
 10
50.7559
 20
75.6931
 30
0.0
 11
50.7559
 21
78.7936
 31
0.0
  0
LINE
  8
0
 62
     0
 10
50.7559
 20
78.7936
 30
0.0
 11
49.9565
 21
78.7936
 31
0.0
  0
LINE
  8
0
 62
     0
 10
49.9565
 20
78.7936
 30
0.0
 11
49.9565
 21
84.5936
 31
0.0
  0
LINE
  8
0
 62
     0
 10
49.9565
 20
84.5936
 30
0.0
 11
50.7559
 21
84.5936
 31
0.0
  0
LINE
  8
0
 62
     0
 10
50.7559
 20
84.5936
 30
0.0
 11
50.7559
 21
87.6928
 31
0.0
  0
LINE
  8
0
 62
     0
 10
50.7559
 20
87.6928
 30
0.0
 11
49.9565
 21
87.6928
 31
0.0
  0
LINE
  8
0
 62
     0
 10
49.9565
 20
87.6928
 30
0.0
 11
49.9565
 21
88.6933
 31
0.0
  0
LINE
  8
0
 62
     0
 10
49.9565
 20
88.6933
 30
0.0
 11
35.9572
 21
88.6933
 31
0.0
  0
LINE
  8
0
 62
     0
 10
235.982
 20
88.6933
 30
0.0
 11
235.982
 21
87.6928
 31
0.0
  0
LINE
  8
0
 62
     0
 10
235.982
 20
87.6928
 30
0.0
 11
235.181
 21
87.6928
 31
0.0
  0
LINE
  8
0
 62
     0
 10
235.181
 20
87.6928
 30
0.0
 11
235.181
 21
84.5936
 31
0.0
  0
LINE
  8
0
 62
     0
 10
235.181
 20
84.5936
 30
0.0
 11
235.982
 21
84.5936
 31
0.0
  0
LINE
  8
0
 62
     0
 10
235.982
 20
84.5936
 30
0.0
 11
235.982
 21
78.7936
 31
0.0
  0
LINE
  8
0
 62
     0
 10
235.982
 20
78.7936
 30
0.0
 11
235.181
 21
78.7936
 31
0.0
  0
LINE
  8
0
 62
     0
 10
235.181
 20
78.7936
 30
0.0
 11
235.181
 21
75.6931
 31
0.0
  0
LINE
  8
0
 62
     0
 10
235.181
 20
75.6931
 30
0.0
 11
235.982
 21
75.6931
 31
0.0
  0
LINE
  8
0
 62
     0
 10
235.982
 20
75.6931
 30
0.0
 11
235.982
 21
74.6936
 31
0.0
  0
LINE
  8
0
 62
     0
 10
235.982
 20
74.6936
 30
0.0
 11
249.982
 21
74.6936
 31
0.0
  0
LINE
  8
0
 62
     0
 10
249.982
 20
74.6936
 30
0.0
 11
249.982
 21
75.6931
 31
0.0
  0
LINE
  8
0
 62
     0
 10
249.982
 20
75.6931
 30
0.0
 11
250.781
 21
75.6931
 31
0.0
  0
LINE
  8
0
 62
     0
 10
250.781
 20
75.6931
 30
0.0
 11
250.781
 21
78.7936
 31
0.0
  0
LINE
  8
0
 62
     0
 10
250.781
 20
78.7936
 30
0.0
 11
249.982
 21
78.7936
 31
0.0
  0
LINE
  8
0
 62
     0
 10
249.982
 20
78.7936
 30
0.0
 11
249.982
 21
84.5936
 31
0.0
  0
LINE
  8
0
 62
     0
 10
249.982
 20
84.5936
 30
0.0
 11
250.781
 21
84.5936
 31
0.0
  0
LINE
  8
0
 62
     0
 10
250.781
 20
84.5936
 30
0.0
 11
250.781
 21
87.6928
 31
0.0
  0
LINE
  8
0
 62
     0
 10
250.781
 20
87.6928
 30
0.0
 11
249.982
 21
87.6928
 31
0.0
  0
LINE
  8
0
 62
     0
 10
249.982
 20
87.6928
 30
0.0
 11
249.982
 21
88.6933
 31
0.0
  0
LINE
  8
0
 62
     0
 10
249.982
 20
88.6933
 30
0.0
 11
235.982
 21
88.6933
 31
0.0
  0
LINE
  8
0
 62
     0
 10
255.032
 20
88.6933
 30
0.0
 11
255.032
 21
87.6928
 31
0.0
  0
LINE
  8
0
 62
     0
 10
255.032
 20
87.6928
 30
0.0
 11
254.231
 21
87.6928
 31
0.0
  0
LINE
  8
0
 62
     0
 10
254.231
 20
87.6928
 30
0.0
 11
254.231
 21
84.5936
 31
0.0
  0
LINE
  8
0
 62
     0
 10
254.231
 20
84.5936
 30
0.0
 11
255.032
 21
84.5936
 31
0.0
  0
LINE
  8
0
 62
     0
 10
255.032
 20
84.5936
 30
0.0
 11
255.032
 21
78.7936
 31
0.0
  0
LINE
  8
0
 62
     0
 10
255.032
 20
78.7936
 30
0.0
 11
254.231
 21
78.7936
 31
0.0
  0
LINE
  8
0
 62
     0
 10
254.231
 20
78.7936
 30
0.0
 11
254.231
 21
75.6931
 31
0.0
  0
LINE
  8
0
 62
     0
 10
254.231
 20
75.6931
 30
0.0
 11
255.032
 21
75.6931
 31
0.0
  0
LINE
  8
0
 62
     0
 10
255.032
 20
75.6931
 30
0.0
 11
255.032
 21
74.6936
 31
0.0
  0
LINE
  8
0
 62
     0
 10
255.032
 20
74.6936
 30
0.0
 11
269.032
 21
74.6936
 31
0.0
  0
LINE
  8
0
 62
     0
 10
269.032
 20
74.6936
 30
0.0
 11
269.032
 21
75.6931
 31
0.0
  0
LINE
  8
0
 62
     0
 10
269.032
 20
75.6931
 30
0.0
 11
269.831
 21
75.6931
 31
0.0
  0
LINE
  8
0
 62
     0
 10
269.831
 20
75.6931
 30
0.0
 11
269.831
 21
78.7936
 31
0.0
  0
LINE
  8
0
 62
     0
 10
269.831
 20
78.7936
 30
0.0
 11
269.032
 21
78.7936
 31
0.0
  0
LINE
  8
0
 62
     0
 10
269.032
 20
78.7936
 30
0.0
 11
269.032
 21
84.5936
 31
0.0
  0
LINE
  8
0
 62
     0
 10
269.032
 20
84.5936
 30
0.0
 11
269.831
 21
84.5936
 31
0.0
  0
LINE
  8
0
 62
     0
 10
269.831
 20
84.5936
 30
0.0
 11
269.831
 21
87.6928
 31
0.0
  0
LINE
  8
0
 62
     0
 10
269.831
 20
87.6928
 30
0.0
 11
269.032
 21
87.6928
 31
0.0
  0
LINE
  8
0
 62
     0
 10
269.032
 20
87.6928
 30
0.0
 11
269.032
 21
88.6933
 31
0.0
  0
LINE
  8
0
 62
     0
 10
269.032
 20
88.6933
 30
0.0
 11
255.032
 21
88.6933
 31
0.0
  0
LINE
  8
0
 62
     0
 10
274.082
 20
88.6933
 30
0.0
 11
274.082
 21
87.6928
 31
0.0
  0
LINE
  8
0
 62
     0
 10
274.082
 20
87.6928
 30
0.0
 11
273.281
 21
87.6928
 31
0.0
  0
LINE
  8
0
 62
     0
 10
273.281
 20
87.6928
 30
0.0
 11
273.281
 21
84.5936
 31
0.0
  0
LINE
  8
0
 62
     0
 10
273.281
 20
84.5936
 30
0.0
 11
274.082
 21
84.5936
 31
0.0
  0
LINE
  8
0
 62
     0
 10
274.082
 20
84.5936
 30
0.0
 11
274.082
 21
78.7936
 31
0.0
  0
LINE
  8
0
 62
     0
 10
274.082
 20
78.7936
 30
0.0
 11
273.281
 21
78.7936
 31
0.0
  0
LINE
  8
0
 62
     0
 10
273.281
 20
78.7936
 30
0.0
 11
273.281
 21
75.6931
 31
0.0
  0
LINE
  8
0
 62
     0
 10
273.281
 20
75.6931
 30
0.0
 11
274.082
 21
75.6931
 31
0.0
  0
LINE
  8
0
 62
     0
 10
274.082
 20
75.6931
 30
0.0
 11
274.082
 21
74.6936
 31
0.0
  0
LINE
  8
0
 62
     0
 10
274.082
 20
74.6936
 30
0.0
 11
288.082
 21
74.6936
 31
0.0
  0
LINE
  8
0
 62
     0
 10
288.082
 20
74.6936
 30
0.0
 11
288.082
 21
75.6931
 31
0.0
  0
LINE
  8
0
 62
     0
 10
288.082
 20
75.6931
 30
0.0
 11
288.881
 21
75.6931
 31
0.0
  0
LINE
  8
0
 62
     0
 10
288.881
 20
75.6931
 30
0.0
 11
288.881
 21
78.7936
 31
0.0
  0
LINE
  8
0
 62
     0
 10
288.881
 20
78.7936
 30
0.0
 11
288.082
 21
78.7936
 31
0.0
  0
LINE
  8
0
 62
     0
 10
288.082
 20
78.7936
 30
0.0
 11
288.082
 21
84.5936
 31
0.0
  0
LINE
  8
0
 62
     0
 10
288.082
 20
84.5936
 30
0.0
 11
288.881
 21
84.5936
 31
0.0
  0
LINE
  8
0
 62
     0
 10
288.881
 20
84.5936
 30
0.0
 11
288.881
 21
87.6928
 31
0.0
  0
LINE
  8
0
 62
     0
 10
288.881
 20
87.6928
 30
0.0
 11
288.082
 21
87.6928
 31
0.0
  0
LINE
  8
0
 62
     0
 10
288.082
 20
87.6928
 30
0.0
 11
288.082
 21
88.6933
 31
0.0
  0
LINE
  8
0
 62
     0
 10
288.082
 20
88.6933
 30
0.0
 11
274.082
 21
88.6933
 31
0.0
  0
ENDSEC
  0
EOF
